<svg width="359" height="46" viewBox="0 0 359 46" fill="none" xmlns="http://www.w3.org/2000/svg">
<rect width="359" height="46" fill="white"/>
<path fill-rule="evenodd" clip-rule="evenodd" d="M334.5 31.5C339.194 31.5 343 27.6943 343 23C343 18.3057 339.194 14.5 334.5 14.5C329.806 14.5 326 18.3057 326 23C326 27.6943 329.806 31.5 334.5 31.5ZM338.266 19.2344C338.578 19.5466 338.578 20.0532 338.266 20.3657L335.631 23L338.266 25.6343C338.578 25.9468 338.578 26.4534 338.266 26.7656C337.953 27.0781 337.447 27.0781 337.134 26.7656L334.5 24.1313L331.866 26.7656C331.553 27.0781 331.047 27.0781 330.734 26.7656C330.422 26.4534 330.422 25.9468 330.734 25.6343L333.369 23L330.734 20.3657C330.422 20.0532 330.422 19.5466 330.734 19.2344C331.047 18.9219 331.553 18.9219 331.866 19.2344L334.5 21.8687L337.134 19.2344C337.447 18.9219 337.953 18.9219 338.266 19.2344Z" fill="#0071D8"/>
<line x1="16" y1="45.75" x2="359" y2="45.75" stroke="#C6C6C8" stroke-width="0.5"/>
</svg>
