<svg width="20" height="20" viewBox="0 0 20 20" fill="none" xmlns="http://www.w3.org/2000/svg">
<path d="M9.9933 16.2444C13.5529 16.2444 16.4909 13.3064 16.4909 9.75307C16.4909 6.19978 13.5466 3.26172 9.98703 3.26172C6.43373 3.26172 3.50195 6.19978 3.50195 9.75307C3.50195 13.3064 6.44001 16.2444 9.9933 16.2444ZM9.9933 14.9512C7.11175 14.9512 4.80776 12.6346 4.80776 9.75307C4.80776 6.87151 7.11175 4.56124 9.98703 4.56124C12.8686 4.56124 15.1851 6.87151 15.1914 9.75307C15.1977 12.6346 12.8749 14.9512 9.9933 14.9512ZM6.82924 10.5441H9.98703C10.2758 10.5441 10.4955 10.3244 10.4955 10.0419V5.93611C10.4955 5.6536 10.2758 5.43387 9.98703 5.43387C9.7108 5.43387 9.49107 5.6536 9.49107 5.93611V9.53962H6.82924C6.54674 9.53962 6.32701 9.75935 6.32701 10.0419C6.32701 10.3244 6.54674 10.5441 6.82924 10.5441Z" fill="#1C1C1E"/>
</svg>
