<svg width="108" height="79" viewBox="0 0 108 79" fill="none" xmlns="http://www.w3.org/2000/svg">
<path d="M60.9004 68.5601L67.8604 79.0001L88.7404 73.7801V68.5601L78.3004 61.6001H67.8604L60.9004 68.5601Z" fill="#F9D549"/>
<path d="M81.78 19.14L80.04 12.18L73.08 10.44L69.6 0H55.68L48.72 13.92L41.76 3.48L15.66 0L6.96 5.22L8.7 19.14L0 27.84V38.4272L1.74 45.24L12.18 50.46L27.84 41.76L43.5 45.24L45.24 50.46L38.28 55.68L34.8 62.64L38.28 67.86L57.42 55.68L67.86 62.64H78.3L95.7 50.46L99.18 43.5C99.18 43.5 107.88 44.4074 107.88 43.9093V27.9616L81.78 19.14Z" fill="#2A75E6"/>
<path d="M0 33.0601V38.4273L1.74 45.2401L12.18 50.4601L27.84 41.7601L43.5 45.2401L45.24 50.4601L38.28 55.6801L34.8 62.6401L38.28 67.8601L57.42 55.6801L67.86 62.6401H78.3L95.7 50.4601L99.18 43.5001C99.18 43.5001 107.88 44.4075 107.88 43.9094V33.0601H0Z" fill="#F9D549"/>
</svg>
