<svg width="25" height="25" viewBox="0 0 25 25" fill="none" xmlns="http://www.w3.org/2000/svg">
<path d="M12.5 18.9321C18.8721 18.9321 23.1724 13.7921 23.1724 12.1991C23.1724 10.6139 18.8642 5.47388 12.5 5.47388C6.22211 5.47388 1.82758 10.6139 1.82758 12.1991C1.82758 13.7921 6.21426 18.9321 12.5 18.9321ZM12.5079 16.4837C10.1144 16.4837 8.20749 14.5297 8.19965 12.2069C8.1918 9.80563 10.1144 7.92226 12.5079 7.92226C14.8856 7.92226 16.8082 9.81348 16.8082 12.2069C16.8082 14.5297 14.8856 16.4837 12.5079 16.4837ZM12.5079 13.7999C13.3868 13.7999 14.1166 13.078 14.1166 12.2069C14.1166 11.328 13.3868 10.5982 12.5079 10.5982C11.6133 10.5982 10.8913 11.328 10.8913 12.2069C10.8913 13.078 11.6133 13.7999 12.5079 13.7999Z" fill="#748B9F"/>
</svg>
