<svg width="25" height="25" viewBox="0 0 25 25" fill="none" xmlns="http://www.w3.org/2000/svg">
<path d="M18.6916 19.1442C18.9349 19.3875 19.3272 19.4032 19.5783 19.1442C19.8373 18.8774 19.8216 18.5007 19.5783 18.2575L6.26134 4.95616C6.01808 4.71289 5.61786 4.70504 5.37459 4.95616C5.13917 5.19158 5.13917 5.59964 5.37459 5.83506L18.6916 19.1442ZM19.4292 16.7429C21.7207 15.2048 23.1724 13.1253 23.1724 12.1993C23.1724 10.6141 18.8642 5.47408 12.5 5.47408C11.166 5.47408 9.91822 5.70166 8.7882 6.07833L10.9384 8.22851C11.4249 8.03233 11.9507 7.92247 12.5079 7.92247C14.8856 7.92247 16.8082 9.81368 16.8082 12.2071C16.8082 12.7565 16.6905 13.2901 16.4786 13.7688L19.4292 16.7429ZM12.5 18.9323C13.9361 18.9323 15.2701 18.6734 16.4472 18.2418L14.2814 16.0759C13.7477 16.3427 13.1435 16.484 12.5079 16.484C10.1144 16.484 8.20749 14.53 8.19965 12.2071C8.19965 11.5558 8.3409 10.9437 8.59986 10.4022L5.76696 7.55364C3.32642 9.12312 1.82758 11.2733 1.82758 12.1993C1.82758 13.7923 6.21426 18.9323 12.5 18.9323ZM15.0112 12.0423C15.0112 10.669 13.9125 9.56257 12.5314 9.56257C12.4451 9.56257 12.3588 9.57042 12.2803 9.57826L14.9955 12.2856C15.0033 12.215 15.0112 12.1287 15.0112 12.0423ZM9.981 12.0737C9.981 13.447 11.111 14.5535 12.4765 14.5535C12.5706 14.5535 12.657 14.5457 12.7433 14.5378L9.9967 11.7912C9.98885 11.8854 9.981 11.9796 9.981 12.0737Z" fill="#748B9F"/>
</svg>
