<svg width="60" height="47" viewBox="0 0 60 47" fill="none" xmlns="http://www.w3.org/2000/svg">
<path d="M7.98221 46.8985H51.9935C57.2341 46.8985 60 44.1812 60 38.9891V13.514C60 8.32188 57.2341 5.60453 51.9935 5.60453H45.5398C43.6474 5.60453 43.0408 5.28912 41.852 4.05176L39.9353 1.98949C38.6737 0.655075 37.3878 0 34.9131 0H24.9414C22.4666 0 21.1808 0.655075 19.9191 1.98949L18.0024 4.05176C16.8378 5.26486 16.207 5.60453 14.3146 5.60453H7.98221C2.74161 5.60453 0 8.32188 0 13.514V38.9891C0 44.1812 2.74161 46.8985 7.98221 46.8985ZM29.9879 39.2802C22.7335 39.2802 16.9106 33.4573 16.9106 26.1787C16.9106 18.8759 22.7335 13.053 29.9879 13.053C37.2665 13.053 43.0894 18.8759 43.0894 26.1787C43.0894 33.4573 37.2665 39.2802 29.9879 39.2802ZM44.6421 17.2503C44.6421 15.5277 46.1221 14.0235 47.8932 14.0235C49.6401 14.0235 51.1201 15.5277 51.1201 17.2503C51.1201 19.0457 49.6401 20.4529 47.8932 20.4772C46.1221 20.4772 44.6421 19.07 44.6421 17.2503ZM29.9879 34.8888C34.816 34.8888 38.6979 31.0069 38.6979 26.1787C38.6979 21.3263 34.816 17.4444 29.9879 17.4444C25.184 17.4444 21.3021 21.3263 21.3021 26.1787C21.3021 31.0069 25.2082 34.8888 29.9879 34.8888Z" fill="#0071D8"/>
</svg>
