<svg width="23" height="23" viewBox="0 0 23 23" fill="none" xmlns="http://www.w3.org/2000/svg">
<path d="M11.4928 18.6811C15.5863 18.6811 18.965 15.3023 18.965 11.216C18.965 7.12974 15.579 3.75098 11.4855 3.75098C7.39926 3.75098 4.02771 7.12974 4.02771 11.216C4.02771 15.3023 7.40648 18.6811 11.4928 18.6811ZM11.4928 17.1938C8.17897 17.1938 5.52938 14.5298 5.52938 11.216C5.52938 7.90224 8.17897 5.24543 11.4855 5.24543C14.7993 5.24543 17.4634 7.90224 17.4706 11.216C17.4778 14.5298 14.8066 17.1938 11.4928 17.1938ZM9.12474 14.2483C9.31245 14.2483 9.4785 14.1833 9.60123 14.0533L11.4928 12.1618L13.3843 14.0533C13.507 14.1761 13.6659 14.2483 13.8608 14.2483C14.229 14.2483 14.5178 13.9595 14.5178 13.5913C14.5178 13.4108 14.4456 13.252 14.3228 13.1292L12.4241 11.2305L14.3228 9.3245C14.46 9.18733 14.525 9.04293 14.525 8.86966C14.525 8.50146 14.2362 8.21268 13.868 8.21268C13.6875 8.21268 13.5359 8.27044 13.3987 8.40761L11.4928 10.3064L9.58679 8.41483C9.46406 8.28488 9.31245 8.2199 9.12474 8.2199C8.75654 8.2199 8.46776 8.50146 8.46776 8.86966C8.46776 9.05015 8.53995 9.20898 8.6699 9.33172L10.5614 11.2305L8.6699 13.1364C8.53995 13.252 8.46776 13.418 8.46776 13.5913C8.46776 13.9595 8.75654 14.2483 9.12474 14.2483Z" fill="#1C1C1E"/>
</svg>
