<svg width="30" height="30" viewBox="0 0 30 30" fill="none" xmlns="http://www.w3.org/2000/svg">
<path d="M7.46652 20.8541H22.5241C23.494 20.8541 24.0873 20.3267 24.0873 19.5357C24.0873 18.5375 23.1832 17.6806 22.3357 16.8708C21.6671 16.221 21.5165 14.865 21.394 13.6125C21.2434 10.166 20.2358 7.73642 17.7968 6.86065C17.4107 5.61762 16.3843 4.6571 14.9906 4.6571C13.6063 4.6571 12.5799 5.61762 12.1844 6.86065C9.75481 7.73642 8.73779 10.166 8.59654 13.6125C8.47412 14.865 8.31403 16.221 7.65485 16.8708C6.80734 17.6806 5.90332 18.5375 5.90332 19.5357C5.90332 20.3267 6.49658 20.8541 7.46652 20.8541ZM14.9906 24.7338C16.6668 24.7338 17.8816 23.5379 18.004 22.1725H11.9866C12.109 23.5379 13.3238 24.7338 14.9906 24.7338Z" fill="white"/>
</svg>
