<svg width="9" height="44" viewBox="0 0 9 44" fill="none" xmlns="http://www.w3.org/2000/svg">
<path d="M8.11816 22C8.11816 21.7925 8.03516 21.6016 7.87744 21.4521L1.30322 15.0107C1.15381 14.8696 0.971191 14.7949 0.755371 14.7949C0.332031 14.7949 0 15.1187 0 15.5503C0 15.7578 0.0830078 15.9487 0.21582 16.0898L6.25879 22L0.21582 27.9102C0.0830078 28.0513 0 28.2339 0 28.4497C0 28.8813 0.332031 29.2051 0.755371 29.2051C0.971191 29.2051 1.15381 29.1304 1.30322 28.981L7.87744 22.5479C8.03516 22.3901 8.11816 22.2075 8.11816 22Z" fill="#3C3C43" fill-opacity="0.3"/>
</svg>
