<svg width="22" height="19" viewBox="0 0 22 19" fill="none" xmlns="http://www.w3.org/2000/svg">
<path d="M0 8.9708C0 9.43233 0.355016 9.83172 0.923041 9.83172C1.19818 9.83172 1.44669 9.68084 1.66857 9.50333L10.473 2.11012C10.7215 1.89712 11.0055 1.89712 11.254 2.11012L20.0495 9.50333C20.2625 9.68084 20.511 9.83172 20.7862 9.83172C21.3098 9.83172 21.7092 9.50333 21.7092 8.98856C21.7092 8.68679 21.5938 8.44716 21.3631 8.2519L18.8691 6.1573V2.46514C18.8691 2.06575 18.6117 1.81724 18.2123 1.81724H16.9875C16.597 1.81724 16.3307 2.06575 16.3307 2.46514V4.01833L12.1238 0.485928C11.3516 -0.161976 10.3753 -0.161976 9.60318 0.485928L0.355016 8.2519C0.11538 8.44716 0 8.71342 0 8.9708ZM2.8845 16.9498C2.8845 18.2278 3.68329 19 5.00572 19H16.7124C18.0259 19 18.8336 18.2278 18.8336 16.9498V10.2045L11.4049 3.98283C11.0587 3.68107 10.6416 3.68995 10.3043 3.98283L2.8845 10.2045V16.9498ZM13.1888 17.3314H8.52925V11.6512C8.52925 11.234 8.80439 10.9678 9.22153 10.9678H12.5054C12.9226 10.9678 13.1888 11.234 13.1888 11.6512V17.3314Z" fill="#8E8E93"/>
</svg>
