<svg width="31" height="31" viewBox="0 0 31 31" fill="none" xmlns="http://www.w3.org/2000/svg">
<path d="M8.79517 25.2253H22.1944C24.306 25.2253 25.4056 24.1355 25.4056 22.0531V10.2108C25.4056 8.12842 24.306 7.03857 22.1944 7.03857H8.79517C6.69332 7.03857 5.59375 8.11869 5.59375 10.2108V22.0531C5.59375 24.1355 6.69332 25.2253 8.79517 25.2253ZM8.78544 23.2889C7.97778 23.2889 7.53017 22.8705 7.53017 22.0142V13.0619C7.53017 12.2056 7.97778 11.7872 8.78544 11.7872H22.2041C23.0118 11.7872 23.4594 12.2056 23.4594 13.0619V22.0142C23.4594 22.8705 23.0118 23.2889 22.2041 23.2889H8.78544ZM13.6216 15.1443H14.1957C14.546 15.1443 14.6628 15.0372 14.6628 14.6967V14.1226C14.6628 13.7723 14.546 13.6652 14.1957 13.6652H13.6216C13.2713 13.6652 13.1545 13.7723 13.1545 14.1226V14.6967C13.1545 15.0372 13.2713 15.1443 13.6216 15.1443ZM16.8036 15.1443H17.3777C17.7183 15.1443 17.835 15.0372 17.835 14.6967V14.1226C17.835 13.7723 17.7183 13.6652 17.3777 13.6652H16.8036C16.4533 13.6652 16.3365 13.7723 16.3365 14.1226V14.6967C16.3365 15.0372 16.4533 15.1443 16.8036 15.1443ZM19.9758 15.1443H20.5499C20.9002 15.1443 21.017 15.0372 21.017 14.6967V14.1226C21.017 13.7723 20.9002 13.6652 20.5499 13.6652H19.9758C19.6352 13.6652 19.5184 13.7723 19.5184 14.1226V14.6967C19.5184 15.0372 19.6352 15.1443 19.9758 15.1443ZM10.4494 18.2776H11.0138C11.3641 18.2776 11.4809 18.1705 11.4809 17.8202V17.2461C11.4809 16.9056 11.3641 16.7985 11.0138 16.7985H10.4494C10.0991 16.7985 9.98232 16.9056 9.98232 17.2461V17.8202C9.98232 18.1705 10.0991 18.2776 10.4494 18.2776ZM13.6216 18.2776H14.1957C14.546 18.2776 14.6628 18.1705 14.6628 17.8202V17.2461C14.6628 16.9056 14.546 16.7985 14.1957 16.7985H13.6216C13.2713 16.7985 13.1545 16.9056 13.1545 17.2461V17.8202C13.1545 18.1705 13.2713 18.2776 13.6216 18.2776ZM16.8036 18.2776H17.3777C17.7183 18.2776 17.835 18.1705 17.835 17.8202V17.2461C17.835 16.9056 17.7183 16.7985 17.3777 16.7985H16.8036C16.4533 16.7985 16.3365 16.9056 16.3365 17.2461V17.8202C16.3365 18.1705 16.4533 18.2776 16.8036 18.2776ZM19.9758 18.2776H20.5499C20.9002 18.2776 21.017 18.1705 21.017 17.8202V17.2461C21.017 16.9056 20.9002 16.7985 20.5499 16.7985H19.9758C19.6352 16.7985 19.5184 16.9056 19.5184 17.2461V17.8202C19.5184 18.1705 19.6352 18.2776 19.9758 18.2776ZM10.4494 21.4012H11.0138C11.3641 21.4012 11.4809 21.2941 11.4809 20.9535V20.3794C11.4809 20.0291 11.3641 19.9221 11.0138 19.9221H10.4494C10.0991 19.9221 9.98232 20.0291 9.98232 20.3794V20.9535C9.98232 21.2941 10.0991 21.4012 10.4494 21.4012ZM13.6216 21.4012H14.1957C14.546 21.4012 14.6628 21.2941 14.6628 20.9535V20.3794C14.6628 20.0291 14.546 19.9221 14.1957 19.9221H13.6216C13.2713 19.9221 13.1545 20.0291 13.1545 20.3794V20.9535C13.1545 21.2941 13.2713 21.4012 13.6216 21.4012ZM16.8036 21.4012H17.3777C17.7183 21.4012 17.835 21.2941 17.835 20.9535V20.3794C17.835 20.0291 17.7183 19.9221 17.3777 19.9221H16.8036C16.4533 19.9221 16.3365 20.0291 16.3365 20.3794V20.9535C16.3365 21.2941 16.4533 21.4012 16.8036 21.4012Z" fill="#0071D8"/>
</svg>
