<svg width="48" height="42" viewBox="0 0 48 42" fill="none" xmlns="http://www.w3.org/2000/svg">
<path d="M41.3402 39.7998C41.9981 40.4372 43.0468 40.4166 43.6636 39.7998C44.301 39.1418 44.301 38.1137 43.6636 37.4969L6.65257 0.485801C6.01516 -0.151612 4.96651 -0.172174 4.3291 0.485801C3.69168 1.10265 3.71225 2.17186 4.3291 2.78871L41.3402 39.7998ZM23.4309 13.6864C23.6777 13.6453 23.9655 13.6247 24.2328 13.6247C31.8201 13.7687 38.2148 16.6884 43.273 21.87C43.7048 22.3018 44.3627 22.2812 44.7945 21.8288L47.6732 18.9296C48.105 18.5184 48.0844 17.9838 47.7554 17.5931C42.7178 11.548 33.5678 7.10667 24.0066 7.10667C21.9094 7.10667 19.8121 7.31229 17.5503 7.7852L23.4309 13.6864ZM8.77042 10.9106C5.35718 12.6789 2.41686 14.9818 0.237318 17.5931C-0.0916691 17.9838 -0.0916691 18.5184 0.319565 18.9296L3.1982 21.8288C3.65056 22.2812 4.3291 22.2812 4.76089 21.8083C7.33111 19.0941 10.2509 17.038 13.5613 15.6809L8.77042 10.9106ZM38.2148 28.4497L39.4279 27.2366C39.8392 26.8459 39.8597 26.3524 39.5102 25.9412C37.3923 23.3299 33.7735 21.0886 29.8667 20.1017L38.2148 28.4497ZM18.0232 20.1222C14.0548 21.212 10.6827 23.3299 8.48256 25.9412C8.13301 26.3524 8.17413 26.8665 8.56481 27.2366L11.793 30.4031C12.2865 30.876 12.9445 30.8349 13.4174 30.3208C15.8642 27.6478 19.6887 25.8178 23.616 25.715L18.0232 20.1222ZM24.0066 31.2872C21.0663 31.2872 18.4139 32.8294 16.9951 34.7622C16.7484 35.1323 16.8512 35.5846 17.2213 35.9342L22.2589 40.7867C23.0814 41.5886 23.5132 41.8148 24.0066 41.8148C24.5207 41.8148 24.9525 41.5681 25.775 40.7867L30.8126 35.9342C31.1827 35.5846 31.2649 35.0089 30.9359 34.5977C29.4966 32.7677 26.9058 31.2872 24.0066 31.2872Z" fill="#0071D8"/>
</svg>
