<svg width="248" height="185" viewBox="0 0 248 185" fill="none" xmlns="http://www.w3.org/2000/svg">
<path d="M248 162.413H0V162.537H248V162.413Z" fill="#EBEBEB"/>
<path d="M223.151 170.397H215.76V170.521H223.151V170.397Z" fill="#EBEBEB"/>
<path d="M164.285 171.743H159.973V171.867H164.285V171.743Z" fill="#EBEBEB"/>
<path d="M213.665 165.791H196.706V165.915H213.665V165.791Z" fill="#EBEBEB"/>
<path d="M54.3761 168.35H32.9526V168.474H54.3761V168.35Z" fill="#EBEBEB"/>
<path d="M66.5193 168.35H58.793V168.474H66.5193V168.35Z" fill="#EBEBEB"/>
<path d="M126.358 166.686H79.8952V166.81H126.358V166.686Z" fill="#EBEBEB"/>
<path d="M117.559 140.292H21.7808C21.0302 140.292 20.3105 139.993 19.7797 139.462C19.2489 138.931 18.9503 138.212 18.9495 137.461V2.83031C18.9506 2.07981 19.2493 1.36038 19.78 0.829797C20.3108 0.299212 21.0303 0.000794266 21.7808 0H117.559C118.309 0.00105903 119.029 0.299592 119.559 0.830148C120.09 1.3607 120.388 2.07999 120.389 2.83031V137.459C120.389 138.21 120.091 138.93 119.56 139.461C119.029 139.992 118.31 140.291 117.559 140.292ZM21.7818 0.124102C21.0658 0.126214 20.3797 0.411589 19.8734 0.917893C19.3671 1.4242 19.0817 2.11029 19.0796 2.82631V137.459C19.0817 138.175 19.3671 138.861 19.8734 139.367C20.3797 139.874 21.0658 140.159 21.7818 140.161H117.56C118.276 140.159 118.962 139.874 119.468 139.367C119.975 138.861 120.26 138.175 120.262 137.459V2.83031C120.26 2.11429 119.975 1.4282 119.468 0.921894C118.962 0.41559 118.276 0.130219 117.56 0.128107L21.7818 0.124102Z" fill="#EBEBEB"/>
<path d="M224.842 140.292H129.064C128.314 140.291 127.594 139.993 127.064 139.462C126.533 138.931 126.235 138.212 126.234 137.461V2.83031C126.235 2.07991 126.533 1.36047 127.064 0.829858C127.594 0.299245 128.314 0.000794776 129.064 0H224.842C225.593 0.000794266 226.312 0.299212 226.843 0.829797C227.374 1.36038 227.672 2.07981 227.673 2.83031V137.459C227.673 138.21 227.375 138.93 226.844 139.462C226.313 139.993 225.593 140.292 224.842 140.292ZM129.064 0.124102C128.348 0.126214 127.662 0.411589 127.156 0.917893C126.649 1.4242 126.364 2.11029 126.362 2.82631V137.459C126.364 138.175 126.649 138.861 127.156 139.367C127.662 139.874 128.348 140.159 129.064 140.161H224.842C225.559 140.16 226.246 139.876 226.754 139.369C227.261 138.863 227.547 138.176 227.549 137.459V2.83031C227.547 2.11342 227.261 1.42658 226.754 0.920134C226.246 0.413687 225.559 0.128898 224.842 0.128107L129.064 0.124102Z" fill="#EBEBEB"/>
<path d="M106.38 162.412H115.616L115.616 98.9887H106.38V162.412Z" fill="#E6E6E6"/>
<path d="M109.631 162.412H106.38V150.363H113.04L109.631 162.412Z" fill="#F0F0F0"/>
<path d="M204.054 162.412H213.29V98.9887H204.054V162.412Z" fill="#E6E6E6"/>
<path d="M106.38 159.123H206.891V98.9886L106.38 98.9886L106.38 159.123Z" fill="#F0F0F0"/>
<path d="M203.643 162.412H206.895V150.363H200.23L203.643 162.412Z" fill="#F0F0F0"/>
<path d="M173.753 103.968V153.712H203.549L203.549 103.968H173.753Z" fill="#E6E6E6"/>
<path d="M185.704 105.717H191.599C194.094 105.742 196.508 104.835 198.369 103.173H178.936C180.796 104.835 183.21 105.742 185.704 105.717Z" fill="#F0F0F0"/>
<path d="M141.738 103.968V153.712H171.533L171.533 103.968H141.738Z" fill="#E6E6E6"/>
<path d="M153.387 105.717H159.282C161.776 105.742 164.19 104.835 166.05 103.173H146.618C148.478 104.835 150.892 105.742 153.387 105.717Z" fill="#F0F0F0"/>
<path d="M109.721 103.968V153.712H139.517L139.517 103.968H109.721Z" fill="#E6E6E6"/>
<path d="M121.371 105.717H127.266C129.76 105.742 132.175 104.835 134.035 103.173H114.601C116.462 104.835 118.876 105.742 121.371 105.717Z" fill="#F0F0F0"/>
<path d="M34.7106 162.412H97.732L97.732 20.7449H34.7106L34.7106 162.412Z" fill="#F0F0F0"/>
<path d="M34.7105 162.412H96.4018L96.4018 20.7449H34.7105L34.7105 162.412Z" fill="#F5F5F5"/>
<path d="M92.6424 159.198L92.6424 23.9595L38.4692 23.9595L38.4692 159.198H92.6424Z" fill="#F0F0F0"/>
<path d="M87.3195 49.111C87.3195 47.1715 86.9375 45.251 86.1952 43.4591C85.453 41.6673 84.3652 40.0391 82.9937 38.6677C81.6223 37.2963 79.9942 36.2084 78.2023 35.4662C76.4104 34.724 74.4899 34.342 72.5504 34.342H58.563C54.646 34.342 50.8895 35.898 48.1198 38.6677C45.35 41.4374 43.794 45.194 43.794 49.111H87.3195Z" fill="#FAFAFA"/>
<path d="M87.3192 150.792V118.484H43.7937V150.792H87.3192Z" fill="#F5F5F5"/>
<path d="M87.3191 58.2206H68.1205V114.315H87.3191V58.2206Z" fill="#F5F5F5"/>
<path d="M62.9926 58.2206H43.794V114.315H62.9926V58.2206Z" fill="#F5F5F5"/>
<path d="M50.7565 86.0152H42.8931C42.5698 86.0144 42.26 85.8856 42.0313 85.657C41.8027 85.4284 41.6739 85.1185 41.6731 84.7952C41.6742 84.472 41.8031 84.1623 42.0316 83.9337C42.2602 83.7051 42.5699 83.5763 42.8931 83.5752H50.7565C51.0798 83.5763 51.3895 83.7051 51.618 83.9337C51.8466 84.1623 51.9755 84.472 51.9765 84.7952C51.9757 85.1185 51.8469 85.4284 51.6183 85.657C51.3897 85.8856 51.0799 86.0144 50.7565 86.0152Z" fill="#E0E0E0"/>
<path d="M39.4452 159.198L39.4452 23.9595H38.4704L38.4704 159.198H39.4452Z" fill="#F0F0F0"/>
<path d="M137.594 83.4401L204.427 83.4401V20.745L137.594 20.745L137.594 83.4401Z" fill="#E6E6E6"/>
<path d="M135.91 83.4401L202.743 83.4401V20.745L135.91 20.745L135.91 83.4401Z" fill="#F5F5F5"/>
<path d="M132.007 87.069L204.427 87.069V83.4401L132.007 83.4401V87.069Z" fill="#E6E6E6"/>
<path d="M130.111 87.069L198.801 87.069V83.4401L130.111 83.4401V87.069Z" fill="#F5F5F5"/>
<path d="M199.718 80.1794V24.0066L138.933 24.0066V80.1794L199.718 80.1794Z" fill="white"/>
<path d="M171.01 80.1794V24.0066H167.641V80.1794H171.01Z" fill="#F5F5F5"/>
<path d="M140.207 80.1794V24.0066H138.933V80.1794H140.207Z" fill="#E6E6E6"/>
<path d="M172.284 80.1794V24.0066H171.01V80.1794H172.284Z" fill="#E6E6E6"/>
<path d="M146.579 85.1023C145.35 72.3669 144.494 51.701 145.159 44.7894C145.17 44.6706 145.207 44.5557 145.266 44.4521C145.326 44.3486 145.406 44.2589 145.503 44.1889C145.632 44.0949 145.784 44.0388 145.943 44.0272C146.102 44.0155 146.26 44.0487 146.401 44.123C146.542 44.1973 146.659 44.3097 146.739 44.4473C146.819 44.585 146.859 44.7423 146.854 44.9015C146.737 48.3263 146.602 56.8863 147.332 71.6533C147.695 79.0043 148.218 84.0384 147.859 85.1003L146.579 85.1023Z" fill="#E6E6E6"/>
<path d="M141.997 55.7495C138.494 51.8633 131.349 49.1 124.065 49.1141C121.206 49.1201 132.766 53.6347 137.576 58.6218C141.421 62.7632 144.586 67.4871 146.953 72.6182C146.024 65.007 145.497 59.6336 141.997 55.7495Z" fill="#E6E6E6"/>
<path d="M148.935 56.9324C151.837 52.8851 158.55 49.7725 165.809 49.4202C168.658 49.2821 157.816 54.3613 153.77 59.5675C150.542 63.9189 148.088 68.7942 146.517 73.9793C146.305 66.36 146.028 60.9807 148.935 56.9324Z" fill="#E6E6E6"/>
<path d="M141.841 41.5559C138.877 38.2652 132.825 35.9253 126.657 35.9373C124.236 35.9373 134.024 39.7664 138.094 43.9849C141.35 47.4916 144.03 51.4916 146.034 55.8365C145.252 49.3973 144.802 44.8466 141.841 41.5559Z" fill="#E6E6E6"/>
<path d="M147.715 46.4228C150.176 42.995 155.857 40.3598 162.003 40.0616C164.416 39.9445 155.236 44.245 151.809 48.6536C149.075 52.3401 146.997 56.4707 145.667 60.8636C145.489 54.4063 145.254 49.8486 147.715 46.4228Z" fill="#E6E6E6"/>
<path d="M147.073 98.9887C145.226 98.9887 143.449 98.2823 142.106 97.0144C140.763 95.7465 139.956 94.013 139.85 92.1691L139.212 81.0971H154.934L154.296 92.1691C154.19 94.013 153.383 95.7465 152.04 97.0144C150.697 98.2823 148.92 98.9887 147.073 98.9887Z" fill="#E6E6E6"/>
<path d="M155.952 83.6142H138.197L137.688 79.0104H156.465L155.952 83.6142Z" fill="#E6E6E6"/>
<path d="M124 184.815C177.113 184.815 220.17 182.3 220.17 179.198C220.17 176.096 177.113 173.581 124 173.581C70.8873 173.581 27.8308 176.096 27.8308 179.198C27.8308 182.3 70.8873 184.815 124 184.815Z" fill="#F5F5F5"/>
<path d="M125.94 173.831L121.799 174.297L120.272 164.906L124.413 164.439L125.94 173.831Z" fill="#FFC3BD"/>
<path d="M144.481 174.735H140.346L139.316 165.159H143.452L144.481 174.735Z" fill="#FFC3BD"/>
<path d="M140.006 174.254H145.047C145.129 174.254 145.208 174.282 145.272 174.333C145.336 174.385 145.381 174.456 145.399 174.536L146.216 178.212C146.235 178.302 146.234 178.395 146.212 178.484C146.19 178.573 146.149 178.656 146.091 178.726C146.032 178.797 145.959 178.854 145.876 178.892C145.793 178.93 145.702 178.95 145.61 178.948C143.988 178.92 142.808 178.825 140.762 178.825C139.505 178.825 135.714 178.955 133.979 178.955C132.277 178.955 132.016 177.239 132.727 177.083C135.913 176.383 138.314 175.425 139.332 174.508C139.517 174.343 139.757 174.252 140.006 174.254Z" fill="#263238"/>
<path d="M121.731 173.587L126.219 173.079C126.3 173.07 126.383 173.088 126.452 173.132C126.522 173.176 126.574 173.242 126.601 173.319L127.827 176.879C127.858 176.965 127.869 177.057 127.859 177.148C127.848 177.239 127.818 177.327 127.769 177.404C127.72 177.481 127.654 177.546 127.576 177.594C127.498 177.642 127.41 177.671 127.319 177.68C125.697 177.836 123.347 178.006 121.314 178.237C118.935 178.507 118.538 179.144 115.732 179.079C114.031 179.039 113.604 177.313 114.318 177.177C117.569 176.546 118.197 176.054 120.78 174.027C121.05 173.795 121.379 173.643 121.731 173.587Z" fill="#263238"/>
<path d="M125.384 53.2204C123.995 54.3673 122.628 55.3642 121.213 56.385C119.799 57.4058 118.355 58.3536 116.869 59.2734C115.383 60.1931 113.857 61.0748 112.258 61.8755C110.623 62.7225 108.921 63.4328 107.169 63.9992C106.706 64.1473 106.254 64.2694 105.734 64.3995C105.225 64.5099 104.71 64.5924 104.193 64.6467C103.261 64.7468 102.384 64.7918 101.51 64.8319C99.7689 64.9119 98.0605 64.9099 96.3541 64.8979C92.9413 64.8569 89.5576 64.6928 86.1588 64.3925L86.1078 61.29C89.4455 60.8606 92.7982 60.4893 96.1159 60.116C97.7743 59.9359 99.4286 59.7337 101.045 59.5226C101.846 59.4135 102.646 59.2854 103.385 59.1482C103.702 59.0922 104.016 59.0184 104.326 58.9271C104.617 58.827 104.974 58.7129 105.304 58.5798C106.723 58.0039 108.1 57.3304 109.425 56.5641C110.797 55.7765 112.17 54.9308 113.519 54.0321C114.868 53.1333 116.211 52.2026 117.542 51.2528C118.873 50.303 120.204 49.2972 121.453 48.3504L125.384 53.2204Z" fill="#FFC3BD"/>
<path d="M129.427 49.6856C128.832 53.5948 120.601 59.5747 120.601 59.5747L114.697 52.2457C117.283 49.4851 120.026 46.8751 122.911 44.4283C125.568 42.2566 130.073 45.4321 129.427 49.6856Z" fill="#407BFF"/>
<path d="M87.2469 61.6172L84.899 59.9458L84.6417 65.2261C84.9967 65.2271 85.3464 65.1411 85.6604 64.9757C85.9745 64.8103 86.2432 64.5706 86.4432 64.2774L87.2469 61.6172Z" fill="#FFC3BD"/>
<path d="M82.7784 58.4087L82.298 63.5839L84.644 65.2262L84.9012 59.9459L82.7784 58.4087Z" fill="#FFC3BD"/>
<path opacity="0.2" d="M120.274 164.909L121.06 169.749L125.203 169.283L124.416 164.442L120.274 164.909Z" fill="black"/>
<path opacity="0.2" d="M143.454 165.16H139.316L139.849 170.096H143.986L143.454 165.16Z" fill="black"/>
<path d="M143.513 44.5535C143.821 44.6225 144.112 44.7525 144.369 44.9358C144.626 45.119 144.844 45.3518 145.009 45.6205C145.175 45.8891 145.285 46.1882 145.334 46.5002C145.382 46.8121 145.368 47.1306 145.291 47.4368C144.394 51.1613 143.717 54.9357 143.266 58.74C142.874 61.9426 142.64 65.0021 142.494 67.7754C142.151 74.2757 142.294 79.2307 142.1 80.9101C138.866 80.6859 126.68 79.8382 120.036 79.3738C117.793 61.8155 120.421 50.6104 121.897 46.0577C122.123 45.3483 122.546 44.7177 123.117 44.2393C123.687 43.7609 124.382 43.4544 125.12 43.3555C125.966 43.2444 126.979 43.1373 128.048 43.0742C128.422 43.0502 128.802 43.0372 129.188 43.0292C132.325 43.0663 135.457 43.2842 138.569 43.6818C139.159 43.7518 139.756 43.8389 140.336 43.932C141.496 44.1261 142.599 44.3493 143.513 44.5535Z" fill="#346AE1"/>
<path d="M138.378 33.0599C137.577 36.0363 136.598 41.5248 138.57 43.6866C133.456 47.1264 130.191 51.9693 129.249 50.9175C128.756 50.367 128.542 43.9968 129.19 43.032C132.612 42.4636 132.699 39.9605 132.277 37.5746L138.378 33.0599Z" fill="#FFC3BD"/>
<path d="M138.174 42.4526C138.174 42.4526 129.84 46.1406 128.735 54.3873C131.031 51.7291 136.102 48.8368 136.102 48.8368L133.865 48.1943C135.287 47.6544 136.76 47.2581 138.262 47.0113C138.013 45.8724 139.336 43.6005 139.336 43.6005L138.174 42.4526Z" fill="#407BFF"/>
<path d="M130.654 42.3197C130.654 42.3197 131.765 47.0295 128.736 54.3875C128.138 51.8193 127.319 49.3079 126.288 46.8814L128.328 47.4368C128.328 47.4368 128.228 46.4871 126.576 45.224C127.264 44.2239 128.123 43.3523 129.113 42.6489L130.654 42.3197Z" fill="#407BFF"/>
<path opacity="0.2" d="M135.891 34.9025L132.28 37.5726C132.387 38.1283 132.445 38.6922 132.453 39.258C133.754 39.1579 135.615 37.8739 135.847 36.5378C135.96 35.9998 135.975 35.4458 135.891 34.9025Z" fill="black"/>
<path d="M127.788 24.4409C125.771 24.528 124.658 28.0048 126.705 30.8682C128.752 33.7315 130.505 24.3238 127.788 24.4409Z" fill="#263238"/>
<path d="M137.733 27.5005C137.972 31.5979 138.32 33.9828 136.517 36.3177C133.805 39.8296 128.56 38.5706 127.102 34.6274C125.79 31.0785 125.619 24.9745 129.404 22.8778C130.237 22.411 131.175 22.1649 132.13 22.1629C133.084 22.1608 134.023 22.4029 134.858 22.8662C135.693 23.3294 136.395 23.9984 136.898 24.8095C137.401 25.6207 137.689 26.547 137.733 27.5005Z" fill="#FFC3BD"/>
<path d="M138.334 30.649C137.239 30.0068 136.282 29.153 135.52 28.1373C134.757 27.1217 134.205 25.9645 133.894 24.7332C132.693 25.0174 126.707 27.7717 124.866 24.7332C123.026 21.6947 125.342 19.9123 128.786 21.7828C127.262 19.0946 128.647 17.7795 133.433 17.6634C138.219 17.5474 137.576 20.3216 137.576 20.3216C137.576 20.3216 141.199 18.7443 142.48 21.5226C143.964 24.7152 141.226 30.1666 138.334 30.649Z" fill="#263238"/>
<path d="M136.757 19.588C136.802 19.588 138.57 20.0133 140.608 17.9626C140.242 19.7121 137.078 20.877 137.078 20.877L136.757 19.588Z" fill="#263238"/>
<path d="M139.135 25.5818C137.226 24.9223 134.916 27.7496 135.769 31.1633C136.623 34.5771 141.706 26.4705 139.135 25.5818Z" fill="#263238"/>
<path d="M140.215 30.9083C140.041 31.9258 139.47 32.8327 138.628 33.4304C137.506 34.213 136.495 33.3183 136.426 32.0232C136.368 30.8583 136.881 29.0468 138.189 28.7796C138.476 28.7259 138.772 28.7449 139.049 28.8347C139.327 28.9245 139.578 29.0823 139.78 29.2938C139.981 29.5053 140.126 29.7638 140.202 30.0458C140.279 30.3277 140.283 30.6242 140.215 30.9083Z" fill="#FFC3BD"/>
<path d="M126.255 125.966C127.249 113.87 134.539 80.3856 134.539 80.3856L120.033 79.3738C120.033 79.3738 114.439 112.612 114.011 125.226C113.564 138.342 118.84 167.492 118.84 167.492L125.796 166.7C125.796 166.7 125.257 138.112 126.255 125.966Z" fill="#407BFF"/>
<path opacity="0.5" d="M126.255 125.966C127.249 113.87 134.539 80.3856 134.539 80.3856L120.033 79.3738C120.033 79.3738 114.439 112.612 114.011 125.226C113.564 138.342 118.84 167.492 118.84 167.492L125.796 166.7C125.796 166.7 125.257 138.112 126.255 125.966Z" fill="white"/>
<path opacity="0.2" d="M129.074 91.7249C126.15 95.464 126.098 108.596 127.229 118.298C128.307 111.299 130.005 102.411 131.493 95.0016L129.074 91.7249Z" fill="black"/>
<path d="M127.86 79.9191C127.86 79.9191 129.425 115.323 131.172 127.313C133.083 140.442 137.938 169.139 137.938 169.139H145.512C145.512 169.139 144.266 142.111 143.267 129.211C142.129 114.518 142.098 80.912 142.098 80.912L127.86 79.9191Z" fill="#407BFF"/>
<path opacity="0.5" d="M127.86 79.9191C127.86 79.9191 129.425 115.323 131.172 127.313C133.083 140.442 137.938 169.139 137.938 169.139H145.512C145.512 169.139 144.266 142.111 143.267 129.211C142.129 114.518 142.098 80.912 142.098 80.912L127.86 79.9191Z" fill="white"/>
<path d="M137.027 169.3H145.946V166.636L135.977 166.463L137.027 169.3Z" fill="#407BFF"/>
<path d="M118.537 168.275L126.827 167.335L126.527 164.656L117.243 165.566L118.537 168.275Z" fill="#407BFF"/>
<path d="M131.7 29.3791C131.74 29.7104 131.6 29.9996 131.38 30.0256C131.16 30.0516 130.956 29.8044 130.916 29.4732C130.877 29.1419 131.017 28.8527 131.237 28.8266C131.457 28.8006 131.661 29.0478 131.7 29.3791Z" fill="#263238"/>
<path d="M127.958 29.8284C127.998 30.1597 127.858 30.4489 127.638 30.4749C127.418 30.501 127.213 30.2538 127.173 29.9225C127.133 29.5912 127.274 29.302 127.494 29.276C127.714 29.2499 127.918 29.5011 127.958 29.8284Z" fill="#263238"/>
<path d="M129.167 29.8505C128.894 30.9101 128.476 31.9271 127.926 32.873C128.172 33.0075 128.444 33.0868 128.723 33.1053C129.002 33.1238 129.282 33.081 129.543 32.9801L129.167 29.8505Z" fill="#ED847E"/>
<path d="M132.718 28.0289C132.683 28.0394 132.646 28.0402 132.611 28.0312C132.576 28.0222 132.544 28.0038 132.518 27.9779C132.352 27.7958 132.146 27.6556 131.916 27.5686C131.686 27.4817 131.438 27.4504 131.194 27.4774C131.143 27.486 131.091 27.4746 131.048 27.4455C131.005 27.4164 130.975 27.3719 130.965 27.3213C130.959 27.296 130.959 27.2699 130.965 27.2445C130.97 27.2191 130.98 27.1951 130.994 27.1737C131.009 27.1523 131.028 27.1341 131.049 27.1201C131.071 27.1061 131.095 27.0966 131.121 27.0921C131.43 27.0521 131.743 27.0869 132.036 27.1935C132.328 27.3001 132.591 27.4754 132.801 27.7046C132.837 27.7419 132.857 27.7916 132.857 27.8432C132.857 27.8949 132.837 27.9446 132.801 27.9819C132.778 28.0042 132.749 28.0204 132.718 28.0289Z" fill="#263238"/>
<path d="M131.28 34.3011C131.752 34.2018 132.193 33.9902 132.567 33.6843C132.94 33.3784 133.234 32.9872 133.424 32.5437C133.434 32.5171 133.432 32.488 133.42 32.4627C133.408 32.4373 133.386 32.4179 133.359 32.4086C133.333 32.3993 133.304 32.4009 133.278 32.4131C133.253 32.4253 133.234 32.4471 133.224 32.4736C133.042 32.8816 132.767 33.2411 132.42 33.5231C132.073 33.805 131.665 34.0016 131.229 34.097C131.215 34.1 131.202 34.1058 131.191 34.1138C131.18 34.1218 131.17 34.1319 131.163 34.1436C131.156 34.1553 131.151 34.1684 131.148 34.182C131.146 34.1956 131.147 34.2096 131.15 34.2231C131.153 34.2365 131.158 34.2493 131.166 34.2605C131.174 34.2718 131.185 34.2814 131.196 34.2887C131.208 34.2961 131.221 34.301 131.235 34.3033C131.248 34.3056 131.262 34.3052 131.276 34.3021L131.28 34.3011Z" fill="#263238"/>
<path d="M126.198 28.7335C126.158 28.7466 126.116 28.7466 126.077 28.7335C126.028 28.7156 125.989 28.6796 125.966 28.6332C125.943 28.5867 125.94 28.5334 125.956 28.4842C126.049 28.1874 126.213 27.9176 126.434 27.6977C126.654 27.4778 126.925 27.3143 127.222 27.2212C127.272 27.2098 127.325 27.2183 127.369 27.2447C127.413 27.2712 127.445 27.3137 127.459 27.3633C127.47 27.4134 127.462 27.466 127.436 27.5101C127.409 27.5543 127.367 27.5867 127.318 27.6005C127.084 27.6784 126.872 27.8107 126.7 27.9864C126.528 28.1622 126.399 28.3764 126.326 28.6114C126.315 28.6402 126.298 28.6662 126.276 28.6873C126.254 28.7085 126.227 28.7243 126.198 28.7335Z" fill="#263238"/>
<path d="M138.644 174.977C138.361 174.999 138.078 174.925 137.843 174.766C137.77 174.702 137.713 174.622 137.678 174.532C137.643 174.442 137.631 174.344 137.643 174.248C137.643 174.191 137.658 174.135 137.688 174.086C137.718 174.037 137.76 173.997 137.811 173.971C138.27 173.735 139.602 174.555 139.753 174.649C139.769 174.66 139.782 174.675 139.79 174.693C139.798 174.711 139.801 174.73 139.798 174.75C139.794 174.769 139.786 174.786 139.772 174.801C139.759 174.815 139.742 174.825 139.724 174.83C139.37 174.919 139.008 174.968 138.644 174.977ZM138.029 174.121C137.985 174.119 137.942 174.127 137.902 174.145C137.882 174.156 137.865 174.173 137.854 174.194C137.843 174.214 137.838 174.237 137.84 174.26C137.831 174.326 137.839 174.393 137.862 174.455C137.885 174.517 137.923 174.572 137.973 174.615C138.435 174.826 138.96 174.853 139.441 174.689C139.01 174.41 138.529 174.217 138.024 174.121H138.029Z" fill="#407BFF"/>
<path d="M139.698 174.832C139.681 174.832 139.665 174.827 139.65 174.82C139.223 174.587 138.395 173.681 138.483 173.218C138.497 173.146 138.536 173.081 138.592 173.034C138.649 172.987 138.72 172.962 138.794 172.961C138.868 172.952 138.944 172.959 139.016 172.98C139.088 173.002 139.154 173.038 139.211 173.087C139.692 173.48 139.791 174.673 139.794 174.724C139.795 174.741 139.791 174.759 139.784 174.774C139.776 174.79 139.764 174.804 139.75 174.814C139.734 174.824 139.716 174.831 139.698 174.832ZM138.863 173.155H138.818C138.691 173.171 138.68 173.229 138.675 173.255C138.623 173.528 139.15 174.212 139.575 174.535C139.547 174.062 139.377 173.609 139.087 173.234C139.024 173.182 138.945 173.154 138.863 173.155Z" fill="#407BFF"/>
<path d="M121.395 174.199L121.379 174.206C120.731 174.413 119.572 174.706 119.077 174.36C119.004 174.31 118.944 174.242 118.903 174.163C118.862 174.084 118.841 173.997 118.841 173.908C118.837 173.854 118.847 173.801 118.87 173.752C118.893 173.703 118.928 173.662 118.972 173.631C119.437 173.303 121.186 173.947 121.384 174.022C121.401 174.029 121.415 174.041 121.426 174.056C121.437 174.071 121.443 174.089 121.444 174.108C121.445 174.126 121.441 174.144 121.433 174.161C121.424 174.177 121.411 174.191 121.395 174.2V174.199ZM119.11 173.775L119.087 173.789C119.069 173.801 119.055 173.817 119.046 173.837C119.037 173.857 119.034 173.878 119.037 173.9C119.036 173.959 119.049 174.017 119.076 174.069C119.102 174.121 119.141 174.166 119.189 174.2C119.798 174.39 120.454 174.354 121.039 174.1C120.433 173.831 119.769 173.719 119.109 173.775H119.11Z" fill="#407BFF"/>
<path d="M121.395 174.199C121.371 174.211 121.344 174.213 121.319 174.205C120.798 174.039 119.718 173.261 119.738 172.789C119.743 172.678 119.806 172.533 120.07 172.476C120.165 172.454 120.264 172.453 120.36 172.471C120.456 172.489 120.547 172.527 120.628 172.582C121.053 172.987 121.338 173.516 121.445 174.093C121.448 174.11 121.447 174.127 121.442 174.143C121.437 174.16 121.427 174.174 121.415 174.186C121.409 174.191 121.402 174.195 121.395 174.199ZM120.003 172.708C119.936 172.744 119.934 172.786 119.933 172.802C119.919 173.086 120.665 173.709 121.207 173.955C121.107 173.494 120.867 173.075 120.521 172.754C120.462 172.713 120.395 172.685 120.324 172.671C120.254 172.658 120.181 172.659 120.111 172.675C120.073 172.681 120.037 172.692 120.003 172.708Z" fill="#407BFF"/>
<path d="M147.001 50.5183C146.896 52.1336 146.706 53.6378 146.509 55.1911C146.312 56.7444 146.047 58.2666 145.755 59.8029C145.179 62.9406 144.328 66.0217 143.212 69.0104L142.721 70.1683L142.597 70.4576L142.566 70.5296L142.515 70.6397L142.371 70.9249C142.18 71.2715 141.952 71.5958 141.689 71.8917C141.258 72.3773 140.753 72.7926 140.194 73.1227C139.741 73.3924 139.266 73.623 138.774 73.8123C137.135 74.4036 135.42 74.7614 133.682 74.8751C130.524 75.111 127.351 74.9925 124.22 74.5219L124.333 71.4193L126.521 71.1721C127.254 71.0851 127.984 70.972 128.71 70.8719C130.158 70.6587 131.591 70.4205 132.957 70.1033C134.221 69.846 135.449 69.4388 136.616 68.8903C136.931 68.758 137.206 68.5475 137.417 68.2788C137.43 68.2077 137.272 68.519 137.458 68.0216L137.785 67.0648C138.587 64.3219 139.2 61.5275 139.62 58.701C139.856 57.2618 140.057 55.8096 140.251 54.3534C140.445 52.8972 140.605 51.411 140.758 50.0149L147.001 50.5183Z" fill="#FFC3BD"/>
<path d="M147.362 47.5198C149.386 50.9156 147.662 61.5883 147.662 61.5883L137.053 59.6277C137.053 59.6277 136.479 53.5227 138.499 48.8248C140.691 43.7117 144.909 43.4054 147.362 47.5198Z" fill="#407BFF"/>
<path d="M121.363 81.0181L115.733 54.8327C115.463 53.7145 114.837 52.7145 113.949 51.9834C113.06 51.2523 111.959 50.8297 110.809 50.7794H89.2388C90.3882 50.8295 91.4902 51.252 92.3786 51.9831C93.267 52.7142 93.8935 53.7144 94.1638 54.8327L99.7934 81.0181C100.064 82.1363 100.69 83.1363 101.578 83.8674C102.466 84.5985 103.568 85.0211 104.717 85.0714H126.287C125.138 85.0211 124.036 84.5985 123.148 83.8674C122.26 83.1363 121.633 82.1363 121.363 81.0181Z" fill="#263238"/>
<path opacity="0.7" d="M121.363 81.0181L115.733 54.8327C115.463 53.7145 114.837 52.7145 113.949 51.9834C113.06 51.2523 111.959 50.8297 110.809 50.7794H89.2388C90.3882 50.8295 91.4902 51.252 92.3786 51.9831C93.267 52.7142 93.8935 53.7144 94.1638 54.8327L99.7934 81.0181C100.064 82.1363 100.69 83.1363 101.578 83.8674C102.466 84.5985 103.568 85.0211 104.717 85.0714H126.287C125.138 85.0211 124.036 84.5985 123.148 83.8674C122.26 83.1363 121.633 82.1363 121.363 81.0181Z" fill="#407BFF"/>
<path d="M89.2385 50.7794H110.808C109.704 50.8001 108.645 51.2234 107.831 51.9698C107.016 52.7162 106.503 53.7343 106.386 54.8327L100.791 115.682C100.674 116.781 100.161 117.799 99.3465 118.545C98.5323 119.291 97.4736 119.715 96.3693 119.736H82.9064C82.3878 119.745 81.8731 119.644 81.3968 119.439C80.9206 119.233 80.4937 118.928 80.1448 118.545C79.7959 118.161 79.533 117.707 79.3737 117.213C79.2145 116.72 79.1625 116.198 79.2213 115.682L84.8179 54.8327C84.9343 53.7345 85.4477 52.7165 86.2618 51.9702C87.0758 51.2238 88.1343 50.8004 89.2385 50.7794Z" fill="#407BFF"/>
<path d="M92.6844 115.681C92.6255 116.197 92.6775 116.719 92.8367 117.212C92.996 117.706 93.2589 118.16 93.6078 118.544C93.9567 118.927 94.3836 119.232 94.8598 119.438C95.3361 119.643 95.8508 119.744 96.3694 119.735H74.7998C74.2811 119.745 73.7664 119.643 73.2901 119.438C72.8137 119.233 72.3868 118.928 72.0378 118.544C71.6889 118.16 71.426 117.706 71.2668 117.213C71.1076 116.719 71.0558 116.197 71.1148 115.681H92.6844Z" fill="#263238"/>
<path opacity="0.7" d="M92.6844 115.681C92.6255 116.197 92.6775 116.719 92.8367 117.212C92.996 117.706 93.2589 118.16 93.6078 118.544C93.9567 118.927 94.3836 119.232 94.8598 119.438C95.3361 119.643 95.8508 119.744 96.3694 119.735H74.7998C74.2811 119.745 73.7664 119.643 73.2901 119.438C72.8137 119.233 72.3868 118.928 72.0378 118.544C71.6889 118.16 71.426 117.706 71.2668 117.213C71.1076 116.719 71.0558 116.197 71.1148 115.681H92.6844Z" fill="#407BFF"/>
<g opacity="0.5">
<path opacity="0.5" d="M102.648 57.5969H88.0524C87.9397 57.5985 87.828 57.576 87.7246 57.5311C87.6213 57.4861 87.5287 57.4197 87.4529 57.3362C87.3772 57.2527 87.3201 57.1541 87.2854 57.0468C87.2508 56.9396 87.2393 56.8262 87.2518 56.7142C87.2778 56.4752 87.3897 56.2539 87.5669 56.0915C87.7441 55.9291 87.9743 55.8366 88.2146 55.8315H102.808C102.921 55.8299 103.033 55.8524 103.136 55.8973C103.24 55.9423 103.332 56.0087 103.408 56.0922C103.484 56.1757 103.541 56.2743 103.575 56.3815C103.61 56.4888 103.622 56.6022 103.609 56.7142C103.583 56.9528 103.472 57.1739 103.295 57.3363C103.118 57.4987 102.888 57.5913 102.648 57.5969Z" fill="white"/>
<path opacity="0.5" d="M102.214 62.3718H87.618C87.5053 62.3733 87.3936 62.3509 87.2902 62.3059C87.1869 62.261 87.0942 62.1946 87.0185 62.1111C86.9428 62.0276 86.8857 61.929 86.851 61.8217C86.8163 61.7145 86.8049 61.6011 86.8174 61.4891C86.8433 61.2501 86.9553 61.0288 87.1325 60.8664C87.3096 60.7039 87.5399 60.6115 87.7802 60.6064H102.376C102.489 60.6048 102.6 60.6272 102.704 60.6722C102.807 60.7171 102.9 60.7836 102.976 60.8671C103.051 60.9505 103.108 61.0492 103.143 61.1564C103.178 61.2637 103.189 61.3771 103.177 61.4891C103.151 61.7281 103.039 61.9496 102.862 62.112C102.685 62.2745 102.454 62.3668 102.214 62.3718Z" fill="white"/>
<path opacity="0.5" d="M98.2016 67.1467H87.1836C87.0709 67.1482 86.9591 67.1258 86.8558 67.0808C86.7524 67.0359 86.6598 66.9695 86.5841 66.886C86.5084 66.8025 86.4513 66.7039 86.4166 66.5966C86.3819 66.4894 86.3704 66.376 86.3829 66.264C86.4089 66.025 86.5209 65.8037 86.6981 65.6412C86.8752 65.4788 87.1054 65.3864 87.3457 65.3812H98.3637C98.4764 65.3797 98.5881 65.4021 98.6915 65.4471C98.7949 65.492 98.8875 65.5585 98.9632 65.6419C99.0389 65.7254 99.096 65.8241 99.1307 65.9313C99.1654 66.0386 99.1768 66.1519 99.1643 66.264C99.1384 66.5029 99.0264 66.7243 98.8492 66.8867C98.6721 67.0491 98.4419 67.1415 98.2016 67.1467Z" fill="white"/>
<path opacity="0.5" d="M90.4867 71.9206H86.7506C86.6379 71.9222 86.5262 71.8997 86.4228 71.8548C86.3195 71.8098 86.2268 71.7434 86.1511 71.6599C86.0754 71.5764 86.0183 71.4778 85.9836 71.3705C85.9489 71.2633 85.9375 71.1499 85.95 71.0379C85.9757 70.799 86.0875 70.5777 86.2645 70.4152C86.4415 70.2528 86.6716 70.1603 86.9117 70.1552H90.6488C90.7615 70.1536 90.8732 70.1761 90.9766 70.221C91.08 70.266 91.1726 70.3324 91.2483 70.4159C91.324 70.4994 91.3811 70.598 91.4158 70.7052C91.4505 70.8125 91.4619 70.9259 91.4494 71.0379C91.4235 71.2768 91.3115 71.4982 91.1343 71.6606C90.9572 71.823 90.727 71.9154 90.4867 71.9206Z" fill="white"/>
<path opacity="0.5" d="M100.911 76.6955H86.3113C86.1986 76.697 86.0869 76.6746 85.9835 76.6296C85.8801 76.5847 85.7875 76.5183 85.7118 76.4348C85.6361 76.3513 85.579 76.2527 85.5443 76.1454C85.5096 76.0382 85.4981 75.9248 85.5106 75.8128C85.5366 75.5738 85.6486 75.3525 85.8258 75.19C86.0029 75.0276 86.2331 74.9352 86.4734 74.93H101.069C101.182 74.9285 101.294 74.9509 101.397 74.9959C101.5 75.0408 101.593 75.1073 101.669 75.1907C101.745 75.2742 101.802 75.3729 101.836 75.4801C101.871 75.5874 101.882 75.7008 101.87 75.8128C101.844 76.051 101.733 76.2718 101.556 76.4342C101.38 76.5965 101.151 76.6894 100.911 76.6955Z" fill="white"/>
<path opacity="0.5" d="M94.729 81.4704H85.8817C85.769 81.4719 85.6573 81.4495 85.5539 81.4045C85.4506 81.3596 85.3579 81.2932 85.2822 81.2097C85.2065 81.1262 85.1494 81.0276 85.1147 80.9203C85.08 80.8131 85.0686 80.6997 85.0811 80.5877C85.1068 80.3488 85.2186 80.1275 85.3956 79.965C85.5726 79.8026 85.8027 79.7101 86.0429 79.7049H94.8901C95.0028 79.7034 95.1145 79.7258 95.2179 79.7708C95.3212 79.8157 95.4139 79.8822 95.4896 79.9656C95.5653 80.0491 95.6224 80.1478 95.6571 80.255C95.6918 80.3622 95.7032 80.4756 95.6907 80.5877C95.6648 80.8264 95.5529 81.0476 95.376 81.2101C95.199 81.3725 94.9691 81.465 94.729 81.4704Z" fill="white"/>
<path opacity="0.5" d="M100.043 86.2443H85.4473C85.3346 86.2458 85.2229 86.2234 85.1195 86.1784C85.0161 86.1335 84.9235 86.0671 84.8478 85.9836C84.7721 85.9001 84.715 85.8015 84.6803 85.6942C84.6456 85.587 84.6341 85.4736 84.6467 85.3616C84.6726 85.1226 84.7846 84.9013 84.9618 84.7388C85.1389 84.5764 85.3691 84.484 85.6094 84.4788H100.206C100.319 84.4773 100.431 84.4997 100.534 84.5447C100.638 84.5896 100.73 84.6561 100.806 84.7395C100.882 84.823 100.939 84.9217 100.973 85.0289C101.008 85.1362 101.019 85.2496 101.007 85.3616C100.981 85.6007 100.869 85.8222 100.691 85.9846C100.514 86.1471 100.284 86.2394 100.043 86.2443Z" fill="white"/>
<path opacity="0.5" d="M96.0309 91.0192H85.0129C84.9002 91.0207 84.7884 90.9983 84.6851 90.9533C84.5817 90.9084 84.4891 90.842 84.4134 90.7585C84.3376 90.675 84.2805 90.5764 84.2459 90.4691C84.2112 90.3619 84.1997 90.2485 84.2122 90.1365C84.2382 89.8975 84.3502 89.6762 84.5273 89.5137C84.7045 89.3513 84.9347 89.2589 85.175 89.2537H96.193C96.3057 89.2522 96.4174 89.2746 96.5208 89.3196C96.6241 89.3645 96.7168 89.431 96.7925 89.5144C96.8682 89.5979 96.9253 89.6966 96.96 89.8038C96.9947 89.911 97.0061 90.0244 96.9936 90.1365C96.9677 90.3754 96.8557 90.5967 96.6785 90.7592C96.5014 90.9216 96.2712 91.014 96.0309 91.0192Z" fill="white"/>
<path opacity="0.5" d="M88.3155 95.7931H84.5765C84.4638 95.7946 84.352 95.7722 84.2487 95.7272C84.1453 95.6823 84.0527 95.6159 83.977 95.5324C83.9013 95.4489 83.8442 95.3503 83.8095 95.243C83.7748 95.1358 83.7633 95.0224 83.7758 94.9104C83.8018 94.6714 83.9138 94.4501 84.0909 94.2877C84.2681 94.1252 84.4983 94.0328 84.7386 94.0276H88.4797C88.5924 94.0261 88.7041 94.0485 88.8075 94.0935C88.9108 94.1384 89.0034 94.2049 89.0792 94.2883C89.1549 94.3718 89.212 94.4705 89.2467 94.5777C89.2813 94.685 89.2928 94.7984 89.2803 94.9104C89.2543 95.1497 89.142 95.3713 88.9645 95.5337C88.7869 95.6962 88.5562 95.7884 88.3155 95.7931Z" fill="white"/>
<path opacity="0.5" d="M98.7404 100.569H84.1445C84.0318 100.571 83.92 100.548 83.8167 100.503C83.7133 100.458 83.6207 100.392 83.545 100.308C83.4693 100.225 83.4122 100.126 83.3775 100.019C83.3428 99.9116 83.3313 99.7983 83.3438 99.6862C83.3698 99.4473 83.4818 99.2259 83.659 99.0635C83.8361 98.9011 84.0663 98.8087 84.3066 98.8035H98.9025C99.0152 98.802 99.127 98.8244 99.2303 98.8694C99.3337 98.9143 99.4263 98.9807 99.502 99.0642C99.5777 99.1477 99.6348 99.2463 99.6695 99.3536C99.7042 99.4608 99.7157 99.5742 99.7032 99.6862C99.6772 99.9252 99.5652 100.147 99.3881 100.309C99.2109 100.471 98.9807 100.564 98.7404 100.569Z" fill="white"/>
<path opacity="0.5" d="M92.5582 105.343H83.711C83.5983 105.344 83.4866 105.322 83.3832 105.277C83.2799 105.232 83.1872 105.166 83.1115 105.082C83.0358 104.999 82.9787 104.9 82.944 104.793C82.9093 104.686 82.8979 104.572 82.9104 104.46C82.9361 104.221 83.0481 104 83.2253 103.837C83.4025 103.675 83.6328 103.582 83.8732 103.577H92.7194C92.8321 103.576 92.9438 103.598 93.0472 103.643C93.1505 103.688 93.2432 103.755 93.3189 103.838C93.3946 103.922 93.4517 104.02 93.4864 104.127C93.5211 104.235 93.5325 104.348 93.52 104.46C93.4941 104.699 93.3822 104.92 93.2053 105.083C93.0283 105.245 92.7984 105.337 92.5582 105.343Z" fill="white"/>
<path opacity="0.5" d="M97.8715 110.118H83.2756C83.1629 110.119 83.0512 110.097 82.9478 110.052C82.8444 110.007 82.7518 109.941 82.6761 109.857C82.6004 109.774 82.5433 109.675 82.5086 109.568C82.4739 109.46 82.4625 109.347 82.475 109.235C82.5009 108.996 82.6129 108.775 82.7901 108.612C82.9672 108.45 83.1975 108.357 83.4377 108.352H98.0316C98.1443 108.351 98.2561 108.373 98.3594 108.418C98.4628 108.463 98.5554 108.53 98.6311 108.613C98.7069 108.697 98.764 108.795 98.7986 108.902C98.8333 109.01 98.8448 109.123 98.8323 109.235C98.8064 109.474 98.6947 109.695 98.5179 109.857C98.3412 110.019 98.1115 110.112 97.8715 110.118Z" fill="white"/>
</g>
<path d="M125.605 71.7575L122.437 69.0042L120.952 74.0724C120.952 74.0724 124.17 75.8178 125.285 74.2155L125.605 71.7575Z" fill="#FFC3BD"/>
<path d="M118.985 68.8061L117.954 73.0536L120.948 74.0744L122.434 69.0052L118.985 68.8061Z" fill="#FFC3BD"/>
</svg>
