<svg width="248" height="185" viewBox="0 0 248 185" fill="none" xmlns="http://www.w3.org/2000/svg">
<path d="M248 162.413H0V162.537H248V162.413Z" fill="#EBEBEB"/>
<path d="M223.151 170.397H215.76V170.521H223.151V170.397Z" fill="#EBEBEB"/>
<path d="M164.285 171.743H159.973V171.867H164.285V171.743Z" fill="#EBEBEB"/>
<path d="M213.665 165.791H196.706V165.915H213.665V165.791Z" fill="#EBEBEB"/>
<path d="M54.3761 168.35H32.9526V168.474H54.3761V168.35Z" fill="#EBEBEB"/>
<path d="M66.5193 168.35H58.793V168.474H66.5193V168.35Z" fill="#EBEBEB"/>
<path d="M126.358 166.686H79.8952V166.81H126.358V166.686Z" fill="#EBEBEB"/>
<path d="M117.558 140.292H21.7803C21.0297 140.292 20.31 139.993 19.7792 139.462C19.2484 138.931 18.9498 138.212 18.949 137.461V2.83031C18.9501 2.07981 19.2488 1.36038 19.7795 0.829797C20.3103 0.299212 21.0299 0.000794266 21.7803 0H117.558C118.309 0.00105903 119.028 0.299592 119.559 0.830148C120.089 1.3607 120.388 2.07999 120.389 2.83031V137.459C120.388 138.21 120.09 138.93 119.56 139.461C119.029 139.992 118.309 140.291 117.558 140.292ZM21.7813 0.124102C21.0653 0.126214 20.3792 0.411589 19.8729 0.917893C19.3666 1.4242 19.0813 2.11029 19.0791 2.82631V137.459C19.0813 138.175 19.3666 138.861 19.8729 139.367C20.3792 139.874 21.0653 140.159 21.7813 140.161H117.559C118.275 140.159 118.962 139.874 119.468 139.367C119.974 138.861 120.26 138.175 120.262 137.459V2.83031C120.26 2.11429 119.974 1.4282 119.468 0.921894C118.962 0.41559 118.275 0.130219 117.559 0.128107L21.7813 0.124102Z" fill="#EBEBEB"/>
<path d="M224.842 140.292H129.064C128.314 140.291 127.594 139.993 127.064 139.462C126.533 138.931 126.235 138.212 126.234 137.461V2.83031C126.235 2.07991 126.533 1.36047 127.064 0.829858C127.594 0.299245 128.314 0.000794776 129.064 0H224.842C225.593 0.000794266 226.312 0.299212 226.843 0.829797C227.374 1.36038 227.672 2.07981 227.673 2.83031V137.459C227.673 138.21 227.375 138.93 226.844 139.462C226.313 139.993 225.593 140.292 224.842 140.292ZM129.064 0.124102C128.348 0.126214 127.662 0.411589 127.156 0.917893C126.649 1.4242 126.364 2.11029 126.362 2.82631V137.459C126.364 138.175 126.649 138.861 127.156 139.367C127.662 139.874 128.348 140.159 129.064 140.161H224.842C225.559 140.16 226.246 139.876 226.754 139.369C227.261 138.863 227.547 138.176 227.549 137.459V2.83031C227.547 2.11342 227.261 1.42658 226.754 0.920134C226.246 0.413687 225.559 0.128898 224.842 0.128107L129.064 0.124102Z" fill="#EBEBEB"/>
<path d="M106.379 162.412H115.616L115.616 98.9887H106.379V162.412Z" fill="#E6E6E6"/>
<path d="M109.631 162.412H106.38V150.363H113.04L109.631 162.412Z" fill="#F0F0F0"/>
<path d="M204.054 162.412H213.29V98.9887H204.054V162.412Z" fill="#E6E6E6"/>
<path d="M106.379 159.123H206.89V98.9886L106.379 98.9886L106.379 159.123Z" fill="#F0F0F0"/>
<path d="M203.643 162.412H206.895V150.363H200.231L203.643 162.412Z" fill="#F0F0F0"/>
<path d="M173.754 103.968V153.712H203.549L203.549 103.968H173.754Z" fill="#E6E6E6"/>
<path d="M185.704 105.717H191.599C194.094 105.742 196.508 104.835 198.369 103.173H178.936C180.796 104.835 183.21 105.742 185.704 105.717Z" fill="#F0F0F0"/>
<path d="M141.738 103.968V153.712H171.533L171.533 103.968H141.738Z" fill="#E6E6E6"/>
<path d="M153.387 105.717H159.282C161.776 105.742 164.19 104.835 166.05 103.173H146.618C148.478 104.835 150.892 105.742 153.387 105.717Z" fill="#F0F0F0"/>
<path d="M109.721 103.968V153.712H139.517L139.517 103.968H109.721Z" fill="#E6E6E6"/>
<path d="M121.371 105.717H127.266C129.76 105.742 132.175 104.835 134.035 103.173H114.601C116.462 104.835 118.876 105.742 121.371 105.717Z" fill="#F0F0F0"/>
<path d="M34.7097 162.412H97.731L97.731 20.7449H34.7097L34.7097 162.412Z" fill="#F0F0F0"/>
<path d="M34.7096 162.412H96.4008L96.4008 20.7449H34.7096L34.7096 162.412Z" fill="#F5F5F5"/>
<path d="M92.6419 159.198L92.6419 23.9595L38.4688 23.9595L38.4688 159.198H92.6419Z" fill="#F0F0F0"/>
<path d="M87.319 49.111C87.319 47.1715 86.937 45.251 86.1948 43.4591C85.4525 41.6673 84.3647 40.0391 82.9932 38.6677C81.6218 37.2963 79.9937 36.2084 78.2018 35.4662C76.41 34.724 74.4894 34.342 72.55 34.342H58.5626C54.6456 34.342 50.889 35.898 48.1193 38.6677C45.3495 41.4374 43.7935 45.194 43.7935 49.111H87.319Z" fill="#FAFAFA"/>
<path d="M87.3192 150.792V118.484H43.7937V150.792H87.3192Z" fill="#F5F5F5"/>
<path d="M87.3186 58.2206H68.12V114.315H87.3186V58.2206Z" fill="#F5F5F5"/>
<path d="M62.9922 58.2206H43.7935V114.315H62.9922V58.2206Z" fill="#F5F5F5"/>
<path d="M50.756 86.0152H42.8926C42.5693 86.0144 42.2595 85.8856 42.0308 85.657C41.8022 85.4284 41.6734 85.1185 41.6726 84.7952C41.6737 84.472 41.8026 84.1623 42.0311 83.9337C42.2597 83.7051 42.5694 83.5763 42.8926 83.5752H50.756C51.0793 83.5763 51.389 83.7051 51.6175 83.9337C51.8461 84.1623 51.975 84.472 51.976 84.7952C51.9753 85.1185 51.8465 85.4284 51.6178 85.657C51.3892 85.8856 51.0794 86.0144 50.756 86.0152Z" fill="#E0E0E0"/>
<path d="M39.4452 159.198L39.4452 23.9595H38.4704L38.4704 159.198H39.4452Z" fill="#F0F0F0"/>
<path d="M137.594 83.4401L204.427 83.4401V20.745L137.594 20.745L137.594 83.4401Z" fill="#E6E6E6"/>
<path d="M135.91 83.4401L202.743 83.4401V20.745L135.91 20.745L135.91 83.4401Z" fill="#F5F5F5"/>
<path d="M132.007 87.069L204.427 87.069V83.4401L132.007 83.4401V87.069Z" fill="#E6E6E6"/>
<path d="M130.111 87.069L198.801 87.069V83.4401L130.111 83.4401V87.069Z" fill="#F5F5F5"/>
<path d="M199.718 80.1794V24.0066L138.933 24.0066V80.1794L199.718 80.1794Z" fill="white"/>
<path d="M171.01 80.1794V24.0066H167.641V80.1794H171.01Z" fill="#F5F5F5"/>
<path d="M140.207 80.1794V24.0066H138.933V80.1794H140.207Z" fill="#E6E6E6"/>
<path d="M172.284 80.1794V24.0066H171.01V80.1794H172.284Z" fill="#E6E6E6"/>
<path d="M146.579 85.1023C145.35 72.3669 144.494 51.701 145.158 44.7894C145.17 44.6706 145.207 44.5557 145.266 44.4521C145.325 44.3486 145.406 44.2589 145.503 44.1889C145.631 44.0949 145.783 44.0388 145.942 44.0272C146.101 44.0155 146.26 44.0487 146.401 44.123C146.542 44.1973 146.659 44.3097 146.739 44.4473C146.819 44.585 146.859 44.7423 146.854 44.9015C146.737 48.3263 146.602 56.8863 147.331 71.6533C147.694 79.0043 148.218 84.0384 147.859 85.1003L146.579 85.1023Z" fill="#E6E6E6"/>
<path d="M141.997 55.7495C138.494 51.8633 131.349 49.1 124.065 49.1141C121.206 49.1201 132.765 53.6347 137.576 58.6218C141.421 62.7632 144.585 67.4871 146.953 72.6182C146.024 65.007 145.496 59.6336 141.997 55.7495Z" fill="#E6E6E6"/>
<path d="M148.934 56.9324C151.836 52.8851 158.549 49.7725 165.808 49.4202C168.657 49.2821 157.815 54.3613 153.769 59.5675C150.541 63.9189 148.087 68.7942 146.516 73.9793C146.304 66.36 146.027 60.9807 148.934 56.9324Z" fill="#E6E6E6"/>
<path d="M141.841 41.5559C138.877 38.2652 132.825 35.9253 126.657 35.9373C124.236 35.9373 134.024 39.7664 138.094 43.9849C141.35 47.4916 144.03 51.4916 146.034 55.8365C145.252 49.3973 144.802 44.8466 141.841 41.5559Z" fill="#E6E6E6"/>
<path d="M147.714 46.4228C150.175 42.995 155.857 40.3598 162.003 40.0616C164.416 39.9445 155.235 44.245 151.809 48.6536C149.074 52.3401 146.997 56.4707 145.667 60.8636C145.488 54.4063 145.253 49.8486 147.714 46.4228Z" fill="#E6E6E6"/>
<path d="M147.074 98.9887C145.227 98.9887 143.45 98.2823 142.107 97.0144C140.764 95.7465 139.957 94.013 139.851 92.1691L139.212 81.0971H154.935L154.296 92.1691C154.19 94.013 153.383 95.7465 152.04 97.0144C150.697 98.2823 148.92 98.9887 147.074 98.9887Z" fill="#E6E6E6"/>
<path d="M155.952 83.6142H138.197L137.688 79.0104H156.465L155.952 83.6142Z" fill="#E6E6E6"/>
<path d="M124 184.815C177.113 184.815 220.169 182.3 220.169 179.198C220.169 176.096 177.113 173.581 124 173.581C70.8868 173.581 27.8303 176.096 27.8303 179.198C27.8303 182.3 70.8868 184.815 124 184.815Z" fill="#F5F5F5"/>
<path d="M125.94 173.831L121.799 174.297L120.272 164.906L124.413 164.439L125.94 173.831Z" fill="#FFC3BD"/>
<path d="M144.482 174.735H140.347L139.317 165.159H143.452L144.482 174.735Z" fill="#FFC3BD"/>
<path d="M140.006 174.254H145.047C145.129 174.254 145.209 174.282 145.273 174.333C145.337 174.385 145.382 174.456 145.4 174.536L146.216 178.212C146.235 178.302 146.234 178.395 146.212 178.484C146.191 178.573 146.149 178.656 146.091 178.726C146.033 178.797 145.959 178.854 145.876 178.892C145.793 178.93 145.702 178.95 145.611 178.948C143.988 178.92 142.808 178.825 140.763 178.825C139.506 178.825 135.715 178.955 133.979 178.955C132.278 178.955 132.017 177.239 132.727 177.083C135.914 176.383 138.315 175.425 139.333 174.508C139.518 174.343 139.758 174.252 140.006 174.254Z" fill="#263238"/>
<path d="M121.731 173.587L126.219 173.079C126.301 173.07 126.383 173.088 126.453 173.132C126.522 173.176 126.575 173.242 126.601 173.319L127.827 176.879C127.858 176.965 127.869 177.057 127.859 177.148C127.849 177.239 127.818 177.327 127.769 177.404C127.72 177.481 127.654 177.546 127.576 177.594C127.498 177.642 127.41 177.671 127.319 177.68C125.698 177.836 123.348 178.006 121.314 178.237C118.935 178.507 118.539 179.144 115.733 179.079C114.031 179.039 113.605 177.313 114.318 177.177C117.569 176.546 118.198 176.054 120.781 174.027C121.051 173.795 121.38 173.643 121.731 173.587Z" fill="#263238"/>
<path d="M125.384 53.2204C123.995 54.3673 122.628 55.3642 121.214 56.385C119.8 57.4058 118.356 58.3536 116.869 59.2734C115.383 60.1931 113.858 61.0748 112.259 61.8755C110.624 62.7225 108.921 63.4328 107.169 63.9992C106.706 64.1473 106.255 64.2694 105.734 64.3995C105.225 64.5099 104.711 64.5924 104.193 64.6467C103.261 64.7468 102.385 64.7918 101.511 64.8319C99.7694 64.9119 98.061 64.9099 96.3546 64.8979C92.9418 64.8569 89.5581 64.6928 86.1593 64.3925L86.1083 61.29C89.446 60.8606 92.7987 60.4893 96.1164 60.116C97.7748 59.9359 99.4291 59.7337 101.045 59.5226C101.846 59.4135 102.647 59.2854 103.385 59.1482C103.703 59.0922 104.017 59.0184 104.326 58.9271C104.617 58.827 104.975 58.7129 105.305 58.5798C106.723 58.0039 108.1 57.3304 109.425 56.5641C110.797 55.7765 112.171 54.9308 113.52 54.0321C114.869 53.1333 116.212 52.2026 117.543 51.2528C118.874 50.303 120.204 49.2972 121.453 48.3504L125.384 53.2204Z" fill="#FFC3BD"/>
<path d="M129.426 49.6856C128.832 53.5948 120.601 59.5747 120.601 59.5747L114.696 52.2457C117.283 49.4851 120.025 46.8751 122.911 44.4283C125.568 42.2566 130.073 45.4321 129.426 49.6856Z" fill="#407BFF"/>
<path d="M87.2474 61.6172L84.8994 59.9458L84.6422 65.2261C84.9971 65.2271 85.3469 65.1411 85.6609 64.9757C85.9749 64.8103 86.2437 64.5706 86.4437 64.2774L87.2474 61.6172Z" fill="#FFC3BD"/>
<path d="M82.7779 58.4087L82.2976 63.5839L84.6435 65.2262L84.9007 59.9459L82.7779 58.4087Z" fill="#FFC3BD"/>
<path opacity="0.2" d="M120.274 164.909L121.06 169.749L125.203 169.283L124.416 164.442L120.274 164.909Z" fill="black"/>
<path opacity="0.2" d="M143.454 165.16H139.317L139.849 170.096H143.987L143.454 165.16Z" fill="black"/>
<path d="M143.513 44.5535C143.821 44.6225 144.112 44.7525 144.369 44.9358C144.626 45.119 144.844 45.3518 145.01 45.6205C145.176 45.8891 145.286 46.1882 145.334 46.5002C145.383 46.8121 145.368 47.1306 145.292 47.4368C144.394 51.1613 143.718 54.9357 143.266 58.74C142.875 61.9426 142.641 65.0021 142.494 67.7754C142.151 74.2757 142.294 79.2307 142.1 80.9101C138.866 80.6859 126.68 79.8382 120.036 79.3738C117.793 61.8155 120.421 50.6104 121.898 46.0577C122.124 45.3483 122.547 44.7177 123.117 44.2393C123.688 43.7609 124.382 43.4544 125.12 43.3555C125.967 43.2444 126.98 43.1373 128.049 43.0742C128.423 43.0502 128.802 43.0372 129.189 43.0292C132.325 43.0663 135.457 43.2842 138.569 43.6818C139.16 43.7518 139.756 43.8389 140.337 43.932C141.497 44.1261 142.599 44.3493 143.513 44.5535Z" fill="#346AE1"/>
<path d="M138.378 33.0599C137.577 36.0363 136.598 41.5248 138.57 43.6866C133.456 47.1264 130.191 51.9693 129.249 50.9175C128.756 50.367 128.542 43.9968 129.19 43.032C132.612 42.4636 132.699 39.9605 132.277 37.5746L138.378 33.0599Z" fill="#FFC3BD"/>
<path d="M138.174 42.4526C138.174 42.4526 129.84 46.1406 128.735 54.3873C131.031 51.7291 136.102 48.8368 136.102 48.8368L133.865 48.1943C135.287 47.6544 136.76 47.2581 138.262 47.0113C138.013 45.8724 139.336 43.6005 139.336 43.6005L138.174 42.4526Z" fill="#407BFF"/>
<path d="M130.654 42.3197C130.654 42.3197 131.765 47.0295 128.736 54.3875C128.138 51.8193 127.319 49.3079 126.288 46.8814L128.328 47.4368C128.328 47.4368 128.228 46.4871 126.576 45.224C127.264 44.2239 128.123 43.3523 129.113 42.6489L130.654 42.3197Z" fill="#407BFF"/>
<path opacity="0.2" d="M135.891 34.9025L132.28 37.5726C132.387 38.1283 132.445 38.6922 132.453 39.258C133.754 39.1579 135.615 37.8739 135.847 36.5378C135.96 35.9998 135.975 35.4458 135.891 34.9025Z" fill="black"/>
<path d="M127.787 24.4409C125.771 24.528 124.658 28.0048 126.705 30.8682C128.751 33.7315 130.505 24.3238 127.787 24.4409Z" fill="#263238"/>
<path d="M137.733 27.5005C137.973 31.5979 138.321 33.9828 136.517 36.3177C133.805 39.8296 128.561 38.5706 127.103 34.6274C125.791 31.0785 125.62 24.9745 129.405 22.8778C130.237 22.411 131.175 22.1649 132.13 22.1629C133.085 22.1608 134.024 22.4029 134.858 22.8662C135.693 23.3294 136.395 23.9984 136.898 24.8095C137.402 25.6207 137.689 26.547 137.733 27.5005Z" fill="#FFC3BD"/>
<path d="M138.334 30.649C137.239 30.0068 136.282 29.153 135.52 28.1373C134.757 27.1217 134.205 25.9645 133.894 24.7332C132.693 25.0174 126.707 27.7717 124.866 24.7332C123.026 21.6947 125.342 19.9123 128.786 21.7828C127.262 19.0946 128.647 17.7795 133.433 17.6634C138.219 17.5474 137.576 20.3216 137.576 20.3216C137.576 20.3216 141.199 18.7443 142.48 21.5226C143.964 24.7152 141.226 30.1666 138.334 30.649Z" fill="#263238"/>
<path d="M136.757 19.588C136.801 19.588 138.569 20.0133 140.607 17.9626C140.242 19.7121 137.077 20.877 137.077 20.877L136.757 19.588Z" fill="#263238"/>
<path d="M139.135 25.5818C137.227 24.9223 134.916 27.7496 135.77 31.1633C136.623 34.5771 141.707 26.4705 139.135 25.5818Z" fill="#263238"/>
<path d="M140.215 30.9083C140.041 31.9258 139.47 32.8327 138.628 33.4304C137.506 34.213 136.495 33.3183 136.426 32.0232C136.368 30.8583 136.881 29.0468 138.189 28.7796C138.476 28.7259 138.772 28.7449 139.049 28.8347C139.327 28.9245 139.578 29.0823 139.78 29.2938C139.981 29.5053 140.126 29.7638 140.202 30.0458C140.279 30.3277 140.283 30.6242 140.215 30.9083Z" fill="#FFC3BD"/>
<path d="M126.254 125.966C127.248 113.87 134.538 80.3856 134.538 80.3856L120.032 79.3738C120.032 79.3738 114.439 112.612 114.01 125.226C113.564 138.342 118.839 167.492 118.839 167.492L125.796 166.7C125.796 166.7 125.257 138.112 126.254 125.966Z" fill="#407BFF"/>
<path opacity="0.5" d="M126.254 125.966C127.248 113.87 134.538 80.3856 134.538 80.3856L120.032 79.3738C120.032 79.3738 114.439 112.612 114.01 125.226C113.564 138.342 118.839 167.492 118.839 167.492L125.796 166.7C125.796 166.7 125.257 138.112 126.254 125.966Z" fill="white"/>
<path opacity="0.2" d="M129.074 91.7249C126.15 95.464 126.098 108.596 127.229 118.298C128.307 111.299 130.005 102.411 131.493 95.0016L129.074 91.7249Z" fill="black"/>
<path d="M127.86 79.9191C127.86 79.9191 129.425 115.323 131.172 127.313C133.083 140.442 137.938 169.139 137.938 169.139H145.512C145.512 169.139 144.266 142.111 143.267 129.211C142.129 114.518 142.098 80.912 142.098 80.912L127.86 79.9191Z" fill="#407BFF"/>
<path opacity="0.5" d="M127.86 79.9191C127.86 79.9191 129.425 115.323 131.172 127.313C133.083 140.442 137.938 169.139 137.938 169.139H145.512C145.512 169.139 144.266 142.111 143.267 129.211C142.129 114.518 142.098 80.912 142.098 80.912L127.86 79.9191Z" fill="white"/>
<path d="M137.028 169.3H145.946V166.636L135.977 166.463L137.028 169.3Z" fill="#407BFF"/>
<path d="M118.536 168.275L126.827 167.335L126.527 164.656L117.242 165.566L118.536 168.275Z" fill="#407BFF"/>
<path d="M131.701 29.3791C131.741 29.7104 131.601 29.9996 131.38 30.0256C131.16 30.0516 130.956 29.8044 130.917 29.4732C130.878 29.1419 131.017 28.8527 131.237 28.8266C131.457 28.8006 131.662 29.0478 131.701 29.3791Z" fill="#263238"/>
<path d="M127.959 29.8284C127.999 30.1597 127.859 30.4489 127.638 30.4749C127.418 30.501 127.214 30.2538 127.174 29.9225C127.134 29.5912 127.274 29.302 127.494 29.276C127.714 29.2499 127.919 29.5011 127.959 29.8284Z" fill="#263238"/>
<path d="M129.168 29.8505C128.894 30.9101 128.477 31.9271 127.927 32.873C128.172 33.0075 128.444 33.0868 128.723 33.1053C129.003 33.1238 129.283 33.081 129.544 32.9801L129.168 29.8505Z" fill="#ED847E"/>
<path d="M132.718 28.0289C132.683 28.0394 132.646 28.0402 132.61 28.0312C132.575 28.0222 132.543 28.0038 132.517 27.9779C132.352 27.7958 132.146 27.6556 131.916 27.5686C131.685 27.4817 131.438 27.4504 131.193 27.4774C131.142 27.486 131.09 27.4746 131.047 27.4455C131.005 27.4164 130.975 27.3719 130.964 27.3213C130.959 27.296 130.959 27.2699 130.964 27.2445C130.969 27.2191 130.979 27.1951 130.994 27.1737C131.008 27.1523 131.027 27.1341 131.049 27.1201C131.071 27.1061 131.095 27.0966 131.12 27.0921C131.429 27.0521 131.743 27.0869 132.035 27.1935C132.328 27.3001 132.59 27.4754 132.801 27.7046C132.836 27.7419 132.856 27.7916 132.856 27.8432C132.856 27.8949 132.836 27.9446 132.801 27.9819C132.777 28.0042 132.749 28.0204 132.718 28.0289Z" fill="#263238"/>
<path d="M131.28 34.3011C131.752 34.2018 132.193 33.9902 132.567 33.6843C132.94 33.3784 133.234 32.9872 133.424 32.5437C133.434 32.5171 133.432 32.488 133.42 32.4627C133.408 32.4373 133.386 32.4179 133.359 32.4086C133.333 32.3993 133.304 32.4009 133.278 32.4131C133.253 32.4253 133.234 32.4471 133.224 32.4736C133.042 32.8816 132.767 33.2411 132.42 33.5231C132.073 33.805 131.665 34.0016 131.229 34.097C131.215 34.1 131.202 34.1058 131.191 34.1138C131.18 34.1218 131.17 34.1319 131.163 34.1436C131.156 34.1553 131.151 34.1684 131.148 34.182C131.146 34.1956 131.147 34.2096 131.15 34.2231C131.153 34.2365 131.158 34.2493 131.166 34.2605C131.174 34.2718 131.185 34.2814 131.196 34.2887C131.208 34.2961 131.221 34.301 131.235 34.3033C131.248 34.3056 131.262 34.3052 131.276 34.3021L131.28 34.3011Z" fill="#263238"/>
<path d="M126.197 28.7335C126.158 28.7466 126.115 28.7466 126.076 28.7335C126.028 28.7156 125.988 28.6796 125.966 28.6332C125.943 28.5867 125.939 28.5334 125.955 28.4842C126.049 28.1874 126.213 27.9176 126.433 27.6977C126.654 27.4778 126.924 27.3143 127.221 27.2212C127.271 27.2098 127.324 27.2183 127.368 27.2447C127.412 27.2712 127.445 27.3137 127.458 27.3633C127.47 27.4134 127.461 27.466 127.435 27.5101C127.409 27.5543 127.367 27.5867 127.317 27.6005C127.084 27.6784 126.872 27.8107 126.699 27.9864C126.527 28.1622 126.399 28.3764 126.325 28.6114C126.315 28.6402 126.298 28.6662 126.276 28.6873C126.253 28.7085 126.227 28.7243 126.197 28.7335Z" fill="#263238"/>
<path d="M138.644 174.977C138.361 174.999 138.078 174.925 137.843 174.766C137.77 174.702 137.713 174.622 137.678 174.532C137.643 174.442 137.631 174.344 137.643 174.248C137.643 174.191 137.658 174.135 137.688 174.086C137.718 174.037 137.76 173.997 137.811 173.971C138.27 173.735 139.602 174.555 139.753 174.649C139.769 174.66 139.782 174.675 139.79 174.693C139.798 174.711 139.801 174.73 139.798 174.75C139.794 174.769 139.786 174.786 139.772 174.801C139.759 174.815 139.742 174.825 139.724 174.83C139.37 174.919 139.008 174.968 138.644 174.977ZM138.029 174.121C137.985 174.119 137.942 174.127 137.902 174.145C137.882 174.156 137.865 174.173 137.854 174.194C137.843 174.214 137.838 174.237 137.84 174.26C137.831 174.326 137.839 174.393 137.862 174.455C137.885 174.517 137.923 174.572 137.973 174.615C138.435 174.826 138.96 174.853 139.441 174.689C139.01 174.41 138.529 174.217 138.024 174.121H138.029Z" fill="#407BFF"/>
<path d="M139.698 174.832C139.681 174.832 139.665 174.827 139.65 174.82C139.223 174.587 138.395 173.681 138.483 173.218C138.497 173.146 138.536 173.081 138.592 173.034C138.649 172.987 138.72 172.962 138.794 172.961C138.868 172.952 138.944 172.959 139.016 172.98C139.088 173.002 139.154 173.038 139.211 173.087C139.692 173.48 139.791 174.673 139.794 174.724C139.795 174.741 139.791 174.759 139.784 174.774C139.776 174.79 139.764 174.804 139.75 174.814C139.734 174.824 139.716 174.831 139.698 174.832ZM138.863 173.155H138.818C138.691 173.171 138.68 173.229 138.675 173.255C138.623 173.528 139.15 174.212 139.575 174.535C139.547 174.062 139.377 173.609 139.087 173.234C139.024 173.182 138.945 173.154 138.863 173.155Z" fill="#407BFF"/>
<path d="M121.395 174.199L121.379 174.206C120.731 174.413 119.572 174.706 119.077 174.36C119.004 174.31 118.944 174.242 118.903 174.163C118.862 174.084 118.841 173.997 118.841 173.908C118.837 173.854 118.847 173.801 118.87 173.752C118.893 173.703 118.928 173.662 118.972 173.631C119.437 173.303 121.186 173.947 121.384 174.022C121.401 174.029 121.415 174.041 121.426 174.056C121.437 174.071 121.443 174.089 121.444 174.108C121.445 174.126 121.441 174.144 121.433 174.161C121.424 174.177 121.411 174.191 121.395 174.2V174.199ZM119.11 173.775L119.087 173.789C119.069 173.801 119.055 173.817 119.046 173.837C119.037 173.857 119.034 173.878 119.037 173.9C119.036 173.959 119.049 174.017 119.076 174.069C119.102 174.121 119.141 174.166 119.189 174.2C119.798 174.39 120.454 174.354 121.039 174.1C120.433 173.831 119.769 173.719 119.109 173.775H119.11Z" fill="#407BFF"/>
<path d="M121.395 174.199C121.371 174.211 121.344 174.213 121.319 174.205C120.798 174.039 119.718 173.261 119.738 172.789C119.743 172.678 119.806 172.533 120.07 172.476C120.165 172.454 120.264 172.453 120.36 172.471C120.456 172.489 120.547 172.527 120.628 172.582C121.053 172.987 121.338 173.516 121.445 174.093C121.448 174.11 121.447 174.127 121.442 174.143C121.437 174.16 121.427 174.174 121.415 174.186C121.409 174.191 121.402 174.195 121.395 174.199ZM120.003 172.708C119.936 172.744 119.934 172.786 119.933 172.802C119.919 173.086 120.665 173.709 121.207 173.955C121.107 173.494 120.867 173.075 120.521 172.754C120.462 172.713 120.395 172.685 120.324 172.671C120.254 172.658 120.181 172.659 120.111 172.675C120.073 172.681 120.037 172.692 120.003 172.708Z" fill="#407BFF"/>
<path d="M147.002 50.5183C146.897 52.1336 146.707 53.6378 146.51 55.1911C146.312 56.7444 146.047 58.2666 145.756 59.8029C145.18 62.9406 144.329 66.0217 143.213 69.0104L142.721 70.1683L142.597 70.4576L142.566 70.5296L142.515 70.6397L142.371 70.9249C142.181 71.2715 141.952 71.5958 141.69 71.8917C141.258 72.3773 140.754 72.7926 140.194 73.1227C139.741 73.3924 139.266 73.623 138.774 73.8123C137.135 74.4036 135.421 74.7614 133.682 74.8751C130.525 75.111 127.351 74.9925 124.22 74.5219L124.333 71.4193L126.521 71.1721C127.255 71.0851 127.984 70.972 128.71 70.8719C130.158 70.6587 131.591 70.4205 132.958 70.1033C134.221 69.846 135.449 69.4388 136.617 68.8903C136.931 68.758 137.207 68.5475 137.417 68.2788C137.43 68.2077 137.272 68.519 137.458 68.0216L137.785 67.0648C138.587 64.3219 139.2 61.5275 139.621 58.701C139.856 57.2618 140.057 55.8096 140.251 54.3534C140.446 52.8972 140.606 51.411 140.759 50.0149L147.002 50.5183Z" fill="#FFC3BD"/>
<path d="M147.362 47.5198C149.386 50.9156 147.662 61.5883 147.662 61.5883L137.053 59.6277C137.053 59.6277 136.479 53.5227 138.499 48.8248C140.691 43.7117 144.909 43.4054 147.362 47.5198Z" fill="#407BFF"/>
<path d="M121.363 81.0181L115.733 54.8327C115.463 53.7145 114.837 52.7145 113.949 51.9834C113.06 51.2523 111.959 50.8297 110.809 50.7794H89.2388C90.3882 50.8295 91.4902 51.252 92.3786 51.9831C93.267 52.7142 93.8935 53.7144 94.1638 54.8327L99.7934 81.0181C100.064 82.1363 100.69 83.1363 101.578 83.8674C102.466 84.5985 103.568 85.0211 104.717 85.0714H126.287C125.138 85.0211 124.036 84.5985 123.148 83.8674C122.26 83.1363 121.633 82.1363 121.363 81.0181Z" fill="#263238"/>
<path opacity="0.7" d="M121.363 81.0181L115.733 54.8327C115.463 53.7145 114.837 52.7145 113.949 51.9834C113.06 51.2523 111.959 50.8297 110.809 50.7794H89.2388C90.3882 50.8295 91.4902 51.252 92.3786 51.9831C93.267 52.7142 93.8935 53.7144 94.1638 54.8327L99.7934 81.0181C100.064 82.1363 100.69 83.1363 101.578 83.8674C102.466 84.5985 103.568 85.0211 104.717 85.0714H126.287C125.138 85.0211 124.036 84.5985 123.148 83.8674C122.26 83.1363 121.633 82.1363 121.363 81.0181Z" fill="#407BFF"/>
<path d="M89.239 50.7794H110.809C109.704 50.8001 108.645 51.2234 107.831 51.9698C107.017 52.7162 106.503 53.7343 106.387 54.8327L100.791 115.682C100.675 116.781 100.161 117.799 99.347 118.545C98.5328 119.291 97.4741 119.715 96.3698 119.736H82.9068C82.3883 119.745 81.8736 119.644 81.3973 119.439C80.9211 119.233 80.4942 118.928 80.1453 118.545C79.7964 118.161 79.5335 117.707 79.3742 117.213C79.215 116.72 79.163 116.198 79.2218 115.682L84.8184 54.8327C84.9348 53.7345 85.4482 52.7165 86.2622 51.9702C87.0763 51.2238 88.1348 50.8004 89.239 50.7794Z" fill="#407BFF"/>
<path d="M92.6844 115.681C92.6255 116.197 92.6775 116.719 92.8367 117.212C92.996 117.706 93.2589 118.16 93.6078 118.544C93.9567 118.927 94.3836 119.232 94.8598 119.438C95.3361 119.643 95.8508 119.744 96.3694 119.735H74.7998C74.2811 119.745 73.7664 119.643 73.2901 119.438C72.8137 119.233 72.3868 118.928 72.0378 118.544C71.6889 118.16 71.426 117.706 71.2668 117.213C71.1076 116.719 71.0558 116.197 71.1148 115.681H92.6844Z" fill="#263238"/>
<path opacity="0.7" d="M92.6844 115.681C92.6255 116.197 92.6775 116.719 92.8367 117.212C92.996 117.706 93.2589 118.16 93.6078 118.544C93.9567 118.927 94.3836 119.232 94.8598 119.438C95.3361 119.643 95.8508 119.744 96.3694 119.735H74.7998C74.2811 119.745 73.7664 119.643 73.2901 119.438C72.8137 119.233 72.3868 118.928 72.0378 118.544C71.6889 118.16 71.426 117.706 71.2668 117.213C71.1076 116.719 71.0558 116.197 71.1148 115.681H92.6844Z" fill="#407BFF"/>
<g opacity="0.5">
<path opacity="0.5" d="M102.649 57.5969H88.0534C87.9407 57.5985 87.829 57.576 87.7256 57.5311C87.6223 57.4861 87.5296 57.4197 87.4539 57.3362C87.3782 57.2527 87.3211 57.1541 87.2864 57.0468C87.2517 56.9396 87.2403 56.8262 87.2528 56.7142C87.2787 56.4752 87.3907 56.2539 87.5679 56.0915C87.745 55.9291 87.9753 55.8366 88.2156 55.8315H102.809C102.922 55.8299 103.034 55.8524 103.137 55.8973C103.241 55.9423 103.333 56.0087 103.409 56.0922C103.485 56.1757 103.542 56.2743 103.576 56.3815C103.611 56.4888 103.623 56.6022 103.61 56.7142C103.584 56.9528 103.472 57.1739 103.296 57.3363C103.119 57.4987 102.889 57.5913 102.649 57.5969Z" fill="white"/>
<path opacity="0.5" d="M102.214 62.3718H87.6185C87.5058 62.3733 87.3941 62.3509 87.2907 62.3059C87.1874 62.261 87.0947 62.1946 87.019 62.1111C86.9433 62.0276 86.8862 61.929 86.8515 61.8217C86.8168 61.7145 86.8054 61.6011 86.8179 61.4891C86.8438 61.2501 86.9558 61.0288 87.133 60.8664C87.3101 60.7039 87.5403 60.6115 87.7806 60.6064H102.377C102.489 60.6048 102.601 60.6272 102.704 60.6722C102.808 60.7171 102.9 60.7836 102.976 60.8671C103.052 60.9505 103.109 61.0492 103.144 61.1564C103.178 61.2637 103.19 61.3771 103.177 61.4891C103.151 61.7281 103.04 61.9496 102.862 62.112C102.685 62.2745 102.455 62.3668 102.214 62.3718Z" fill="white"/>
<path opacity="0.5" d="M98.2025 67.1467H87.1846C87.0719 67.1482 86.9601 67.1258 86.8568 67.0808C86.7534 67.0359 86.6608 66.9695 86.5851 66.886C86.5093 66.8025 86.4522 66.7039 86.4175 66.5966C86.3829 66.4894 86.3714 66.376 86.3839 66.264C86.4099 66.025 86.5219 65.8037 86.699 65.6412C86.8762 65.4788 87.1064 65.3864 87.3467 65.3812H98.3647C98.4774 65.3797 98.5891 65.4021 98.6925 65.4471C98.7958 65.492 98.8885 65.5585 98.9642 65.6419C99.0399 65.7254 99.097 65.8241 99.1317 65.9313C99.1664 66.0386 99.1778 66.1519 99.1653 66.264C99.1394 66.5029 99.0274 66.7243 98.8502 66.8867C98.6731 67.0491 98.4428 67.1415 98.2025 67.1467Z" fill="white"/>
<path opacity="0.5" d="M90.4867 71.9206H86.7506C86.6379 71.9222 86.5262 71.8997 86.4228 71.8548C86.3195 71.8098 86.2268 71.7434 86.1511 71.6599C86.0754 71.5764 86.0183 71.4778 85.9836 71.3705C85.9489 71.2633 85.9375 71.1499 85.95 71.0379C85.9757 70.799 86.0875 70.5777 86.2645 70.4152C86.4415 70.2528 86.6716 70.1603 86.9117 70.1552H90.6488C90.7615 70.1536 90.8732 70.1761 90.9766 70.221C91.08 70.266 91.1726 70.3324 91.2483 70.4159C91.324 70.4994 91.3811 70.598 91.4158 70.7052C91.4505 70.8125 91.4619 70.9259 91.4494 71.0379C91.4235 71.2768 91.3115 71.4982 91.1343 71.6606C90.9572 71.823 90.727 71.9154 90.4867 71.9206Z" fill="white"/>
<path opacity="0.5" d="M100.912 76.6955H86.3118C86.1991 76.697 86.0873 76.6746 85.984 76.6296C85.8806 76.5847 85.788 76.5183 85.7123 76.4348C85.6366 76.3513 85.5795 76.2527 85.5448 76.1454C85.5101 76.0382 85.4986 75.9248 85.5111 75.8128C85.5371 75.5738 85.6491 75.3525 85.8262 75.19C86.0034 75.0276 86.2336 74.9352 86.4739 74.93H101.07C101.183 74.9285 101.294 74.9509 101.398 74.9959C101.501 75.0408 101.594 75.1073 101.669 75.1907C101.745 75.2742 101.802 75.3729 101.837 75.4801C101.872 75.5874 101.883 75.7008 101.87 75.8128C101.845 76.051 101.733 76.2718 101.557 76.4342C101.381 76.5965 101.151 76.6894 100.912 76.6955Z" fill="white"/>
<path opacity="0.5" d="M94.7299 81.4704H85.8827C85.77 81.4719 85.6583 81.4495 85.5549 81.4045C85.4515 81.3596 85.3589 81.2932 85.2832 81.2097C85.2075 81.1262 85.1504 81.0276 85.1157 80.9203C85.081 80.8131 85.0696 80.6997 85.0821 80.5877C85.1078 80.3488 85.2196 80.1275 85.3966 79.965C85.5736 79.8026 85.8037 79.7101 86.0438 79.7049H94.8911C95.0038 79.7034 95.1155 79.7258 95.2189 79.7708C95.3222 79.8157 95.4148 79.8822 95.4906 79.9656C95.5663 80.0491 95.6234 80.1478 95.6581 80.255C95.6927 80.3622 95.7042 80.4756 95.6917 80.5877C95.6658 80.8264 95.5539 81.0476 95.377 81.2101C95.2 81.3725 94.9701 81.465 94.7299 81.4704Z" fill="white"/>
<path opacity="0.5" d="M100.044 86.2443H85.4478C85.3351 86.2458 85.2233 86.2234 85.12 86.1784C85.0166 86.1335 84.924 86.0671 84.8483 85.9836C84.7726 85.9001 84.7155 85.8015 84.6808 85.6942C84.6461 85.587 84.6346 85.4736 84.6471 85.3616C84.6731 85.1226 84.7851 84.9013 84.9623 84.7388C85.1394 84.5764 85.3696 84.484 85.6099 84.4788H100.207C100.32 84.4773 100.431 84.4997 100.535 84.5447C100.638 84.5896 100.731 84.6561 100.806 84.7395C100.882 84.823 100.939 84.9217 100.974 85.0289C101.009 85.1362 101.02 85.2496 101.007 85.3616C100.982 85.6007 100.869 85.8222 100.692 85.9846C100.515 86.1471 100.284 86.2394 100.044 86.2443Z" fill="white"/>
<path opacity="0.5" d="M96.0318 91.0192H85.0138C84.9011 91.0207 84.7894 90.9983 84.686 90.9533C84.5827 90.9084 84.4901 90.842 84.4143 90.7585C84.3386 90.675 84.2815 90.5764 84.2468 90.4691C84.2122 90.3619 84.2007 90.2485 84.2132 90.1365C84.2391 89.8975 84.3512 89.6762 84.5283 89.5137C84.7055 89.3513 84.9357 89.2589 85.176 89.2537H96.194C96.3067 89.2522 96.4184 89.2746 96.5218 89.3196C96.6251 89.3645 96.7177 89.431 96.7935 89.5144C96.8692 89.5979 96.9263 89.6966 96.961 89.8038C96.9956 89.911 97.0071 90.0244 96.9946 90.1365C96.9687 90.3754 96.8567 90.5967 96.6795 90.7592C96.5023 90.9216 96.2721 91.014 96.0318 91.0192Z" fill="white"/>
<path opacity="0.5" d="M88.316 95.7931H84.577C84.4643 95.7946 84.3525 95.7722 84.2492 95.7272C84.1458 95.6823 84.0532 95.6159 83.9775 95.5324C83.9017 95.4489 83.8446 95.3503 83.81 95.243C83.7753 95.1358 83.7638 95.0224 83.7763 94.9104C83.8023 94.6714 83.9143 94.4501 84.0914 94.2877C84.2686 94.1252 84.4988 94.0328 84.7391 94.0276H88.4802C88.5929 94.0261 88.7046 94.0485 88.808 94.0935C88.9113 94.1384 89.0039 94.2049 89.0797 94.2883C89.1554 94.3718 89.2125 94.4705 89.2472 94.5777C89.2818 94.685 89.2933 94.7984 89.2808 94.9104C89.2548 95.1497 89.1425 95.3713 88.9649 95.5337C88.7874 95.6962 88.5567 95.7884 88.316 95.7931Z" fill="white"/>
<path opacity="0.5" d="M98.7409 100.569H84.145C84.0323 100.571 83.9205 100.548 83.8172 100.503C83.7138 100.458 83.6212 100.392 83.5455 100.308C83.4697 100.225 83.4127 100.126 83.378 100.019C83.3433 99.9116 83.3318 99.7983 83.3443 99.6862C83.3703 99.4473 83.4823 99.2259 83.6594 99.0635C83.8366 98.9011 84.0668 98.8087 84.3071 98.8035H98.903C99.0157 98.802 99.1274 98.8244 99.2308 98.8694C99.3342 98.9143 99.4268 98.9807 99.5025 99.0642C99.5782 99.1477 99.6353 99.2463 99.67 99.3536C99.7047 99.4608 99.7162 99.5742 99.7037 99.6862C99.6777 99.9252 99.5657 100.147 99.3885 100.309C99.2114 100.471 98.9812 100.564 98.7409 100.569Z" fill="white"/>
<path opacity="0.5" d="M92.5582 105.343H83.711C83.5983 105.344 83.4866 105.322 83.3832 105.277C83.2799 105.232 83.1872 105.166 83.1115 105.082C83.0358 104.999 82.9787 104.9 82.944 104.793C82.9093 104.686 82.8979 104.572 82.9104 104.46C82.9361 104.221 83.0481 104 83.2253 103.837C83.4025 103.675 83.6328 103.582 83.8732 103.577H92.7194C92.8321 103.576 92.9438 103.598 93.0472 103.643C93.1505 103.688 93.2432 103.755 93.3189 103.838C93.3946 103.922 93.4517 104.02 93.4864 104.127C93.5211 104.235 93.5325 104.348 93.52 104.46C93.4941 104.699 93.3822 104.92 93.2053 105.083C93.0283 105.245 92.7984 105.337 92.5582 105.343Z" fill="white"/>
<path opacity="0.5" d="M97.872 110.118H83.2761C83.1634 110.119 83.0517 110.097 82.9483 110.052C82.8449 110.007 82.7523 109.941 82.6766 109.857C82.6009 109.774 82.5438 109.675 82.5091 109.568C82.4744 109.46 82.4629 109.347 82.4754 109.235C82.5014 108.996 82.6134 108.775 82.7906 108.612C82.9677 108.45 83.1979 108.357 83.4382 108.352H98.0321C98.1448 108.351 98.2566 108.373 98.3599 108.418C98.4633 108.463 98.5559 108.53 98.6316 108.613C98.7074 108.697 98.7645 108.795 98.7991 108.902C98.8338 109.01 98.8453 109.123 98.8328 109.235C98.8069 109.474 98.6952 109.695 98.5184 109.857C98.3417 110.019 98.1119 110.112 97.872 110.118Z" fill="white"/>
</g>
<path d="M125.605 71.7575L122.436 69.0042L120.951 74.0724C120.951 74.0724 124.17 75.8178 125.285 74.2155L125.605 71.7575Z" fill="#FFC3BD"/>
<path d="M118.984 68.8061L117.954 73.0536L120.948 74.0744L122.433 69.0052L118.984 68.8061Z" fill="#FFC3BD"/>
</svg>
