<svg width="74" height="10" viewBox="0 0 74 10" fill="none" xmlns="http://www.w3.org/2000/svg">
<path d="M5 10C7.76142 10 10 7.76142 10 5C10 2.23858 7.76142 0 5 0C2.23858 0 0 2.23858 0 5C0 7.76142 2.23858 10 5 10Z" fill="#002241"/>
<path d="M21 10C23.7614 10 26 7.76142 26 5C26 2.23858 23.7614 0 21 0C18.2386 0 16 2.23858 16 5C16 7.76142 18.2386 10 21 10Z" fill="#002241"/>
<path d="M37 10C39.7614 10 42 7.76142 42 5C42 2.23858 39.7614 0 37 0C34.2386 0 32 2.23858 32 5C32 7.76142 34.2386 10 37 10Z" fill="#002241"/>
<path d="M53 10C55.7614 10 58 7.76142 58 5C58 2.23858 55.7614 0 53 0C50.2386 0 48 2.23858 48 5C48 7.76142 50.2386 10 53 10Z" fill="#002241"/>
<path d="M69 10C71.7614 10 74 7.76142 74 5C74 2.23858 71.7614 0 69 0C66.2386 0 64 2.23858 64 5C64 7.76142 66.2386 10 69 10Z" fill="#002241"/>
</svg>
