<svg width="20" height="20" viewBox="0 0 20 20" fill="none" xmlns="http://www.w3.org/2000/svg">
<path d="M9.99379 16.2444C13.5534 16.2444 16.4914 13.3064 16.4914 9.75307C16.4914 6.19978 13.5471 3.26172 9.98751 3.26172C6.43422 3.26172 3.50244 6.19978 3.50244 9.75307C3.50244 13.3064 6.4405 16.2444 9.99379 16.2444ZM9.99379 14.9512C7.11223 14.9512 4.80824 12.6346 4.80824 9.75307C4.80824 6.87151 7.11223 4.56124 9.98751 4.56124C12.8691 4.56124 15.1856 6.87151 15.1919 9.75307C15.1982 12.6346 12.8753 14.9512 9.99379 14.9512ZM6.82973 10.5441H9.98751C10.2763 10.5441 10.496 10.3244 10.496 10.0419V5.93611C10.496 5.6536 10.2763 5.43387 9.98751 5.43387C9.71129 5.43387 9.49156 5.6536 9.49156 5.93611V9.53962H6.82973C6.54722 9.53962 6.3275 9.75935 6.3275 10.0419C6.3275 10.3244 6.54722 10.5441 6.82973 10.5441Z" fill="#002241"/>
</svg>
