<svg width="14" height="14" viewBox="0 0 14 14" fill="none" xmlns="http://www.w3.org/2000/svg">
<path d="M5.98892 11.9591C7.31678 11.9589 8.60642 11.5146 9.65262 10.6969L12.9419 13.9862L13.9998 12.9283L10.7095 9.63792C11.5362 8.56909 11.9765 7.25178 11.9586 5.90068C11.9408 4.54958 11.4659 3.24435 10.6113 2.19771C9.75669 1.15107 8.57279 0.424732 7.25255 0.137076C5.9323 -0.15058 4.55355 0.017405 3.341 0.613652C2.12844 1.2099 1.15358 2.19925 0.575296 3.42047C-0.00299162 4.64169 -0.150611 6.02277 0.156497 7.33863C0.463605 8.65449 1.20733 9.82753 2.26647 10.6666C3.32561 11.5057 4.63771 11.9613 5.98892 11.9591ZM5.98892 1.48259C6.8775 1.48259 7.74611 1.74608 8.48494 2.23975C9.22376 2.73341 9.7996 3.43508 10.1396 4.25601C10.4797 5.07694 10.5687 5.98028 10.3953 6.85178C10.2219 7.72328 9.79406 8.5238 9.16574 9.15211C8.53743 9.78043 7.7369 10.2083 6.86541 10.3817C5.99391 10.555 5.09057 10.4661 4.26964 10.126C3.44871 9.78597 2.74704 9.21013 2.25338 8.47131C1.75971 7.73248 1.49622 6.86387 1.49622 5.97529C1.49622 4.78376 1.96956 3.64102 2.8121 2.79847C3.65465 1.95593 4.79738 1.48259 5.98892 1.48259Z" fill="white"/>
</svg>
