<svg width="200" height="44" viewBox="0 0 200 44" fill="none" xmlns="http://www.w3.org/2000/svg">
<path d="M0 12.72C0 8.31504 0 6.11257 0.843643 4.42417C1.61799 2.87446 2.87446 1.61799 4.42417 0.843643C6.11257 0 8.31504 0 12.72 0H187.28C191.685 0 193.887 0 195.576 0.843643C197.126 1.61799 198.382 2.87446 199.156 4.42417C200 6.11257 200 8.31504 200 12.72V21.9467C200 26.3516 200 28.5541 199.156 30.2425C198.382 31.7922 197.126 33.0487 195.576 33.823C193.887 34.6667 191.685 34.6667 187.28 34.6667H150H125H117.116C115.424 34.6667 114.578 34.6667 113.78 34.8306C113.033 34.9842 112.339 35.2329 111.664 35.5881C110.944 35.9674 110.277 36.5148 108.944 37.6094C105.613 40.3449 101.084 44 100.667 44C100.227 44 94.647 39.9453 90.8937 37.1809C89.6253 36.2468 88.9912 35.7797 88.3139 35.4546C87.6808 35.1507 87.0312 34.9373 86.3413 34.8065C85.6031 34.6667 84.8271 34.6667 83.2751 34.6667H75H50H12.72C8.31504 34.6667 6.11257 34.6667 4.42417 33.823C2.87446 33.0487 1.61799 31.7922 0.843643 30.2425C0 28.5541 0 26.3516 0 21.9467V12.72Z" fill="#0071D8"/>
</svg>
