<svg width="248" height="185" viewBox="0 0 248 185" fill="none" xmlns="http://www.w3.org/2000/svg">
<path d="M248 162.413H0V162.537H248V162.413Z" fill="#EBEBEB"/>
<path d="M223.151 170.397H215.76V170.521H223.151V170.397Z" fill="#EBEBEB"/>
<path d="M164.285 171.743H159.973V171.867H164.285V171.743Z" fill="#EBEBEB"/>
<path d="M213.665 165.791H196.706V165.915H213.665V165.791Z" fill="#EBEBEB"/>
<path d="M54.3763 168.35H32.9529V168.474H54.3763V168.35Z" fill="#EBEBEB"/>
<path d="M66.5193 168.35H58.793V168.474H66.5193V168.35Z" fill="#EBEBEB"/>
<path d="M126.358 166.686H79.8951V166.81H126.358V166.686Z" fill="#EBEBEB"/>
<path d="M117.559 140.292H21.7808C21.0301 140.291 20.3105 139.993 19.7797 139.462C19.2489 138.931 18.9503 138.212 18.9495 137.461V2.8303C18.9506 2.07981 19.2492 1.36038 19.78 0.829796C20.3108 0.299212 21.0303 0.000794265 21.7808 0H117.559C118.309 0.00105903 119.028 0.299592 119.559 0.830147C120.09 1.3607 120.388 2.07999 120.389 2.8303V137.459C120.389 138.21 120.091 138.93 119.56 139.461C119.029 139.992 118.31 140.291 117.559 140.292ZM21.7818 0.124102C21.0658 0.126214 20.3797 0.411588 19.8734 0.917892C19.3671 1.4242 19.0817 2.11028 19.0796 2.8263V137.459C19.0817 138.175 19.3671 138.861 19.8734 139.367C20.3797 139.874 21.0658 140.159 21.7818 140.161H117.56C118.276 140.159 118.962 139.874 119.468 139.367C119.974 138.861 120.26 138.175 120.262 137.459V2.8303C120.26 2.11428 119.974 1.4282 119.468 0.921893C118.962 0.415589 118.276 0.130219 117.56 0.128106L21.7818 0.124102Z" fill="#EBEBEB"/>
<path d="M224.842 140.292H129.064C128.314 140.291 127.594 139.992 127.064 139.462C126.533 138.931 126.235 138.211 126.234 137.461V2.8303C126.235 2.0799 126.533 1.36047 127.064 0.829857C127.594 0.299244 128.314 0.000794775 129.064 0H224.842C225.593 0.000794265 226.312 0.299212 226.843 0.829796C227.374 1.36038 227.672 2.07981 227.673 2.8303V137.459C227.673 138.21 227.375 138.93 226.844 139.461C226.313 139.993 225.593 140.291 224.842 140.292ZM129.064 0.124102C128.348 0.126214 127.662 0.411588 127.156 0.917892C126.649 1.4242 126.364 2.11028 126.362 2.8263V137.459C126.364 138.175 126.649 138.861 127.156 139.367C127.662 139.874 128.348 140.159 129.064 140.161H224.842C225.559 140.16 226.246 139.876 226.754 139.369C227.261 138.863 227.547 138.176 227.549 137.459V2.8303C227.547 2.11342 227.261 1.42658 226.754 0.920133C226.246 0.413687 225.559 0.128898 224.842 0.128106L129.064 0.124102Z" fill="#EBEBEB"/>
<path d="M106.38 162.412H115.616L115.616 98.9886H106.38V162.412Z" fill="#E6E6E6"/>
<path d="M109.631 162.412H106.38V150.362H113.04L109.631 162.412Z" fill="#F0F0F0"/>
<path d="M204.053 162.412H213.29V98.9886H204.053V162.412Z" fill="#E6E6E6"/>
<path d="M106.38 159.123H206.89V98.9886H106.38L106.38 159.123Z" fill="#F0F0F0"/>
<path d="M203.643 162.412H206.894V150.362H200.23L203.643 162.412Z" fill="#F0F0F0"/>
<path d="M173.754 103.968V153.712H203.549V103.968H173.754Z" fill="#E6E6E6"/>
<path d="M185.704 105.717H191.599C194.094 105.743 196.508 104.835 198.369 103.173H178.936C180.796 104.835 183.21 105.742 185.704 105.717Z" fill="#F0F0F0"/>
<path d="M141.737 103.968V153.712H171.533V103.968H141.737Z" fill="#E6E6E6"/>
<path d="M153.387 105.717H159.282C161.776 105.742 164.19 104.835 166.05 103.173H146.617C148.478 104.835 150.892 105.743 153.387 105.717Z" fill="#F0F0F0"/>
<path d="M109.721 103.968V153.712H139.517V103.968H109.721Z" fill="#E6E6E6"/>
<path d="M121.371 105.717H127.266C129.76 105.743 132.175 104.835 134.035 103.173H114.601C116.462 104.835 118.876 105.743 121.371 105.717Z" fill="#F0F0F0"/>
<path d="M34.7101 162.412H97.7314L97.7314 20.7449H34.7101L34.7101 162.412Z" fill="#F0F0F0"/>
<path d="M34.7103 162.412H96.4015L96.4015 20.7449H34.7103L34.7103 162.412Z" fill="#F5F5F5"/>
<path d="M92.6423 159.198L92.6423 23.9595L38.4692 23.9595L38.4692 159.198H92.6423Z" fill="#F0F0F0"/>
<path d="M87.3189 49.111C87.3189 47.1715 86.9369 45.251 86.1947 43.4591C85.4525 41.6673 84.3646 40.0392 82.9932 38.6677C81.6217 37.2963 79.9936 36.2084 78.2017 35.4662C76.4099 34.724 74.4894 34.342 72.5499 34.342H58.5625C54.6455 34.342 50.8889 35.898 48.1192 38.6677C45.3495 41.4375 43.7935 45.194 43.7935 49.111H87.3189Z" fill="#FAFAFA"/>
<path d="M87.3189 150.792V118.483H43.7935V150.792H87.3189Z" fill="#F5F5F5"/>
<path d="M87.319 58.2204H68.1204V114.315H87.319V58.2204Z" fill="#F5F5F5"/>
<path d="M62.9921 58.2204H43.7935V114.315H62.9921V58.2204Z" fill="#F5F5F5"/>
<path d="M50.7562 86.0151H42.8928C42.5695 86.0143 42.2597 85.8855 42.0311 85.6568C41.8024 85.4282 41.6736 85.1184 41.6728 84.795C41.6739 84.4718 41.8028 84.1621 42.0313 83.9336C42.2599 83.705 42.5696 83.5761 42.8928 83.5751H50.7562C51.0795 83.5761 51.3892 83.705 51.6177 83.9336C51.8463 84.1621 51.9752 84.4718 51.9762 84.795C51.9754 85.1184 51.8466 85.4282 51.618 85.6568C51.3894 85.8855 51.0796 86.0143 50.7562 86.0151Z" fill="#E0E0E0"/>
<path d="M39.445 159.198L39.445 23.9595H38.4702L38.4702 159.198H39.445Z" fill="#F0F0F0"/>
<path d="M137.594 83.4399L204.427 83.4399V20.7449L137.594 20.7449L137.594 83.4399Z" fill="#E6E6E6"/>
<path d="M135.91 83.4399L202.743 83.4399V20.7449L135.91 20.7449L135.91 83.4399Z" fill="#F5F5F5"/>
<path d="M132.007 87.0689L204.427 87.0689V83.44L132.007 83.44V87.0689Z" fill="#E6E6E6"/>
<path d="M130.111 87.0689L198.801 87.0689V83.44L130.111 83.44V87.0689Z" fill="#F5F5F5"/>
<path d="M199.719 80.1793V24.0065L138.933 24.0065V80.1793L199.719 80.1793Z" fill="white"/>
<path d="M171.01 80.1793V24.0065H167.64V80.1793H171.01Z" fill="#F5F5F5"/>
<path d="M140.207 80.1793V24.0065H138.933V80.1793H140.207Z" fill="#E6E6E6"/>
<path d="M172.284 80.1793V24.0065H171.01V80.1793H172.284Z" fill="#E6E6E6"/>
<path d="M146.578 85.1023C145.349 72.3669 144.493 51.7011 145.158 44.7895C145.17 44.6707 145.206 44.5558 145.266 44.4522C145.325 44.3487 145.406 44.259 145.502 44.189C145.631 44.095 145.783 44.0389 145.942 44.0273C146.101 44.0156 146.26 44.0488 146.4 44.1231C146.541 44.1974 146.658 44.3098 146.739 44.4474C146.819 44.585 146.858 44.7424 146.853 44.9016C146.736 48.3264 146.601 56.8863 147.331 71.6534C147.694 79.0044 148.217 84.0384 147.858 85.1003L146.578 85.1023Z" fill="#E6E6E6"/>
<path d="M141.996 55.7494C138.494 51.8633 131.349 49.1 124.065 49.114C121.205 49.12 132.765 53.6347 137.576 58.6218C141.42 62.7631 144.585 67.487 146.952 72.6181C146.024 65.007 145.496 59.6336 141.996 55.7494Z" fill="#E6E6E6"/>
<path d="M148.934 56.9324C151.836 52.8851 158.549 49.7725 165.808 49.4202C168.657 49.2821 157.815 54.3613 153.769 59.5675C150.541 63.9189 148.088 68.7942 146.516 73.9792C146.304 66.36 146.028 60.9807 148.934 56.9324Z" fill="#E6E6E6"/>
<path d="M141.84 41.5558C138.877 38.2652 132.824 35.9253 126.656 35.9373C124.235 35.9373 134.023 39.7664 138.093 43.9848C141.349 47.4915 144.029 51.4916 146.034 55.8365C145.251 49.3972 144.802 44.8465 141.84 41.5558Z" fill="#E6E6E6"/>
<path d="M147.714 46.4228C150.175 42.995 155.857 40.3599 162.003 40.0616C164.416 39.9445 155.235 44.245 151.808 48.6536C149.074 52.3402 146.996 56.4707 145.666 60.8636C145.488 54.4063 145.253 49.8486 147.714 46.4228Z" fill="#E6E6E6"/>
<path d="M147.073 98.9885C145.226 98.9885 143.449 98.2822 142.106 97.0143C140.763 95.7463 139.956 94.0128 139.85 92.169L139.211 81.097H154.934L154.296 92.169C154.19 94.0128 153.382 95.7463 152.039 97.0143C150.697 98.2822 148.92 98.9885 147.073 98.9885Z" fill="#E6E6E6"/>
<path d="M155.952 83.614H138.196L137.688 79.0103H156.464L155.952 83.614Z" fill="#E6E6E6"/>
<path d="M124 184.814C177.113 184.814 220.169 182.3 220.169 179.198C220.169 176.096 177.113 173.581 124 173.581C70.8872 173.581 27.8308 176.096 27.8308 179.198C27.8308 182.3 70.8872 184.814 124 184.814Z" fill="#F5F5F5"/>
<path d="M125.941 173.83L121.799 174.297L120.272 164.905L124.413 164.439L125.941 173.83Z" fill="#FFC3BD"/>
<path d="M144.482 174.735H140.346L139.317 165.158H143.452L144.482 174.735Z" fill="#FFC3BD"/>
<path d="M140.006 174.254H145.047C145.129 174.254 145.209 174.282 145.273 174.333C145.337 174.384 145.381 174.456 145.399 174.536L146.216 178.212C146.235 178.302 146.234 178.394 146.212 178.483C146.191 178.572 146.149 178.655 146.091 178.726C146.033 178.797 145.959 178.853 145.876 178.892C145.793 178.93 145.702 178.949 145.611 178.948C143.988 178.92 142.808 178.825 140.763 178.825C139.506 178.825 135.715 178.955 133.979 178.955C132.278 178.955 132.017 177.238 132.727 177.083C135.914 176.383 138.315 175.425 139.333 174.508C139.518 174.343 139.758 174.252 140.006 174.254Z" fill="#263238"/>
<path d="M121.731 173.587L126.219 173.079C126.3 173.069 126.383 173.088 126.452 173.132C126.522 173.175 126.574 173.241 126.601 173.319L127.827 176.879C127.858 176.965 127.869 177.057 127.859 177.148C127.849 177.239 127.818 177.326 127.769 177.404C127.72 177.481 127.654 177.546 127.576 177.594C127.498 177.642 127.41 177.671 127.319 177.68C125.697 177.836 123.347 178.006 121.314 178.237C118.935 178.507 118.539 179.144 115.732 179.079C114.031 179.039 113.604 177.312 114.318 177.177C117.569 176.546 118.197 176.054 120.78 174.027C121.05 173.795 121.379 173.643 121.731 173.587Z" fill="#263238"/>
<path d="M125.384 53.2203C123.995 54.3672 122.628 55.364 121.214 56.3849C119.8 57.4057 118.355 58.3535 116.869 59.2732C115.383 60.193 113.858 61.0747 112.258 61.8754C110.624 62.7224 108.921 63.4327 107.169 63.9991C106.706 64.1472 106.255 64.2693 105.734 64.3994C105.225 64.5097 104.711 64.5923 104.193 64.6466C103.261 64.7467 102.384 64.7917 101.511 64.8318C99.7693 64.9118 98.0609 64.9098 96.3545 64.8978C92.9417 64.8568 89.558 64.6926 86.1592 64.3924L86.1082 61.2899C89.4459 60.8605 92.7986 60.4892 96.1163 60.1159C97.7747 59.9358 99.429 59.7336 101.045 59.5224C101.846 59.4134 102.647 59.2852 103.385 59.1481C103.703 59.0921 104.017 59.0182 104.326 58.927C104.617 58.8269 104.975 58.7128 105.305 58.5797C106.723 58.0038 108.1 57.3303 109.425 56.564C110.797 55.7764 112.17 54.9307 113.519 54.032C114.869 53.1332 116.212 52.2025 117.543 51.2527C118.874 50.3029 120.204 49.2971 121.453 48.3503L125.384 53.2203Z" fill="#FFC3BD"/>
<path d="M129.426 49.6854C128.832 53.5946 120.601 59.5745 120.601 59.5745L114.696 52.2455C117.283 49.485 120.026 46.8749 122.911 44.4282C125.568 42.2564 130.073 45.432 129.426 49.6854Z" fill="#407BFF"/>
<path d="M87.247 61.6171L84.8991 59.9458L84.6419 65.2261C84.9968 65.227 85.3466 65.141 85.6606 64.9756C85.9746 64.8103 86.2434 64.5705 86.4434 64.2773L87.247 61.6171Z" fill="#FFC3BD"/>
<path d="M82.7783 58.4086L82.298 63.5838L84.6439 65.2261L84.9011 59.9458L82.7783 58.4086Z" fill="#FFC3BD"/>
<path opacity="0.2" d="M120.274 164.908L121.061 169.749L125.203 169.283L124.416 164.442L120.274 164.908Z" fill="black"/>
<path opacity="0.2" d="M143.454 165.159H139.317L139.849 170.096H143.986L143.454 165.159Z" fill="black"/>
<path d="M143.513 44.5532C143.821 44.6223 144.112 44.7523 144.369 44.9355C144.626 45.1188 144.844 45.3516 145.009 45.6202C145.175 45.8889 145.286 46.188 145.334 46.4999C145.382 46.8119 145.368 47.1303 145.291 47.4366C144.394 51.1611 143.718 54.9354 143.266 58.7398C142.874 61.9424 142.64 65.0019 142.494 67.7751C142.151 74.2754 142.294 79.2305 142.1 80.9098C138.866 80.6857 126.68 79.838 120.036 79.3736C117.793 61.8153 120.421 50.6102 121.897 46.0575C122.123 45.348 122.546 44.7174 123.117 44.239C123.687 43.7607 124.382 43.4542 125.12 43.3553C125.967 43.2442 126.979 43.1371 128.048 43.074C128.423 43.05 128.802 43.037 129.188 43.029C132.325 43.0661 135.457 43.284 138.569 43.6815C139.159 43.7516 139.756 43.8387 140.336 43.9317C141.496 44.1259 142.599 44.3491 143.513 44.5532Z" fill="#346AE1"/>
<path d="M138.378 33.0599C137.577 36.0364 136.598 41.5248 138.57 43.6866C133.456 47.1264 130.191 51.9693 129.249 50.9175C128.756 50.367 128.542 43.9968 129.19 43.0321C132.612 42.4636 132.699 39.9605 132.277 37.5746L138.378 33.0599Z" fill="#FFC3BD"/>
<path d="M138.174 42.4525C138.174 42.4525 129.84 46.1405 128.735 54.3872C131.031 51.7291 136.102 48.8367 136.102 48.8367L133.865 48.1942C135.288 47.6543 136.76 47.258 138.262 47.0112C138.014 45.8723 139.337 43.6005 139.337 43.6005L138.174 42.4525Z" fill="#407BFF"/>
<path d="M130.654 42.3194C130.654 42.3194 131.765 47.0293 128.736 54.3873C128.139 51.8191 127.32 49.3076 126.288 46.8811L128.329 47.4366C128.329 47.4366 128.228 46.4868 126.576 45.2238C127.265 44.2237 128.123 43.3521 129.113 42.6487L130.654 42.3194Z" fill="#407BFF"/>
<path opacity="0.2" d="M135.891 34.9024L132.28 37.5726C132.387 38.1282 132.445 38.6921 132.453 39.2579C133.754 39.1578 135.616 37.8738 135.847 36.5377C135.96 35.9997 135.975 35.4457 135.891 34.9024Z" fill="black"/>
<path d="M127.788 24.4409C125.771 24.528 124.659 28.0048 126.705 30.8681C128.752 33.7315 130.505 24.3238 127.788 24.4409Z" fill="#263238"/>
<path d="M137.733 27.5004C137.972 31.5977 138.321 33.9827 136.517 36.3176C133.805 39.8294 128.561 38.5704 127.102 34.6272C125.79 31.0783 125.619 24.9743 129.404 22.8776C130.237 22.4108 131.175 22.1647 132.13 22.1627C133.084 22.1607 134.023 22.4028 134.858 22.866C135.693 23.3293 136.395 23.9982 136.898 24.8094C137.401 25.6205 137.689 26.5469 137.733 27.5004Z" fill="#FFC3BD"/>
<path d="M138.335 30.6489C137.239 30.0067 136.282 29.1529 135.52 28.1372C134.758 27.1216 134.205 25.9644 133.894 24.7331C132.693 25.0174 126.707 27.7716 124.867 24.7331C123.026 21.6947 125.342 19.9122 128.786 21.7827C127.263 19.0945 128.648 17.7795 133.434 17.6634C138.22 17.5473 137.576 20.3215 137.576 20.3215C137.576 20.3215 141.199 18.7443 142.48 21.5225C143.964 24.7151 141.226 30.1666 138.335 30.6489Z" fill="#263238"/>
<path d="M136.757 19.5879C136.801 19.5879 138.57 20.0133 140.607 17.9626C140.242 19.712 137.078 20.877 137.078 20.877L136.757 19.5879Z" fill="#263238"/>
<path d="M139.135 25.5818C137.227 24.9223 134.916 27.7496 135.77 31.1634C136.623 34.5772 141.706 26.4706 139.135 25.5818Z" fill="#263238"/>
<path d="M140.215 30.9082C140.04 31.9257 139.47 32.8325 138.628 33.4302C137.506 34.2129 136.495 33.3181 136.426 32.0231C136.368 30.8581 136.88 29.0466 138.188 28.7794C138.476 28.7258 138.771 28.7447 139.049 28.8345C139.327 28.9243 139.578 29.0822 139.78 29.2937C139.981 29.5052 140.126 29.7637 140.202 30.0456C140.278 30.3276 140.283 30.6241 140.215 30.9082Z" fill="#FFC3BD"/>
<path d="M126.255 125.966C127.249 113.87 134.539 80.3854 134.539 80.3854L120.033 79.3736C120.033 79.3736 114.439 112.612 114.011 125.226C113.565 138.342 118.84 167.491 118.84 167.491L125.797 166.7C125.797 166.7 125.257 138.111 126.255 125.966Z" fill="#407BFF"/>
<path opacity="0.5" d="M126.255 125.966C127.249 113.87 134.539 80.3854 134.539 80.3854L120.033 79.3736C120.033 79.3736 114.439 112.612 114.011 125.226C113.565 138.342 118.84 167.491 118.84 167.491L125.797 166.7C125.797 166.7 125.257 138.111 126.255 125.966Z" fill="white"/>
<path opacity="0.2" d="M129.074 91.7247C126.15 95.4637 126.098 108.595 127.229 118.297C128.306 111.299 130.005 102.41 131.493 95.0014L129.074 91.7247Z" fill="black"/>
<path d="M127.86 79.9191C127.86 79.9191 129.425 115.323 131.172 127.313C133.083 140.442 137.938 169.139 137.938 169.139H145.513C145.513 169.139 144.267 142.111 143.267 129.211C142.129 114.518 142.098 80.9119 142.098 80.9119L127.86 79.9191Z" fill="#407BFF"/>
<path opacity="0.5" d="M127.86 79.9191C127.86 79.9191 129.425 115.323 131.172 127.313C133.083 140.442 137.938 169.139 137.938 169.139H145.513C145.513 169.139 144.267 142.111 143.267 129.211C142.129 114.518 142.098 80.9119 142.098 80.9119L127.86 79.9191Z" fill="white"/>
<path d="M137.028 169.3H145.946V166.636L135.977 166.463L137.028 169.3Z" fill="#407BFF"/>
<path d="M118.536 168.275L126.827 167.335L126.527 164.656L117.242 165.566L118.536 168.275Z" fill="#407BFF"/>
<path d="M131.7 29.3789C131.74 29.7102 131.6 29.9994 131.38 30.0254C131.16 30.0514 130.956 29.8042 130.917 29.473C130.878 29.1417 131.017 28.8525 131.237 28.8264C131.457 28.8004 131.661 29.0476 131.7 29.3789Z" fill="#263238"/>
<path d="M127.958 29.8283C127.998 30.1595 127.858 30.4488 127.638 30.4748C127.418 30.5008 127.214 30.2536 127.174 29.9223C127.134 29.5911 127.274 29.3018 127.494 29.2758C127.714 29.2498 127.918 29.501 127.958 29.8283Z" fill="#263238"/>
<path d="M129.167 29.8503C128.894 30.9099 128.476 31.9269 127.926 32.8727C128.172 33.0073 128.444 33.0866 128.723 33.1051C129.002 33.1236 129.282 33.0808 129.543 32.9798L129.167 29.8503Z" fill="#ED847E"/>
<path d="M132.718 28.0288C132.683 28.0393 132.646 28.0401 132.611 28.0311C132.576 28.0221 132.543 28.0037 132.518 27.9778C132.352 27.7958 132.146 27.6555 131.916 27.5685C131.686 27.4816 131.438 27.4503 131.194 27.4774C131.143 27.486 131.09 27.4745 131.048 27.4454C131.005 27.4163 130.975 27.3718 130.965 27.3212C130.959 27.2959 130.959 27.2698 130.964 27.2444C130.969 27.219 130.98 27.195 130.994 27.1736C131.009 27.1522 131.027 27.134 131.049 27.12C131.071 27.106 131.095 27.0965 131.121 27.092C131.429 27.052 131.743 27.0868 132.036 27.1934C132.328 27.3 132.591 27.4753 132.801 27.7045C132.837 27.7418 132.857 27.7915 132.857 27.8432C132.857 27.8948 132.837 27.9445 132.801 27.9818C132.778 28.0041 132.749 28.0203 132.718 28.0288Z" fill="#263238"/>
<path d="M131.28 34.3009C131.752 34.2016 132.194 33.99 132.567 33.6841C132.94 33.3782 133.234 32.987 133.425 32.5435C133.434 32.5169 133.432 32.4878 133.42 32.4624C133.408 32.4371 133.386 32.4177 133.36 32.4084C133.333 32.3991 133.304 32.4007 133.278 32.4129C133.253 32.4251 133.234 32.4469 133.224 32.4734C133.042 32.8814 132.767 33.2409 132.42 33.5228C132.073 33.8048 131.665 34.0014 131.229 34.0967C131.215 34.0998 131.203 34.1055 131.191 34.1135C131.18 34.1216 131.17 34.1317 131.163 34.1434C131.156 34.1551 131.151 34.1682 131.149 34.1818C131.146 34.1954 131.147 34.2094 131.15 34.2228C131.153 34.2363 131.159 34.249 131.167 34.2603C131.175 34.2716 131.185 34.2812 131.196 34.2885C131.208 34.2958 131.221 34.3008 131.235 34.3031C131.248 34.3054 131.262 34.305 131.276 34.3019L131.28 34.3009Z" fill="#263238"/>
<path d="M126.198 28.7334C126.159 28.7465 126.116 28.7465 126.077 28.7334C126.028 28.7155 125.989 28.6795 125.966 28.6331C125.944 28.5867 125.94 28.5333 125.956 28.4842C126.05 28.1873 126.214 27.9175 126.434 27.6976C126.654 27.4777 126.925 27.3142 127.222 27.2211C127.272 27.2098 127.325 27.2182 127.369 27.2447C127.413 27.2711 127.445 27.3136 127.459 27.3633C127.47 27.4133 127.462 27.4659 127.436 27.5101C127.41 27.5542 127.367 27.5866 127.318 27.6004C127.084 27.6783 126.873 27.8106 126.7 27.9863C126.528 28.1621 126.399 28.3763 126.326 28.6113C126.315 28.6401 126.298 28.6661 126.276 28.6872C126.254 28.7084 126.227 28.7242 126.198 28.7334Z" fill="#263238"/>
<path d="M138.644 174.976C138.361 174.999 138.079 174.924 137.843 174.765C137.77 174.702 137.714 174.622 137.679 174.532C137.644 174.441 137.632 174.344 137.643 174.248C137.643 174.191 137.659 174.135 137.688 174.086C137.718 174.037 137.761 173.997 137.811 173.971C138.271 173.734 139.603 174.555 139.753 174.649C139.769 174.66 139.782 174.675 139.79 174.692C139.798 174.71 139.801 174.73 139.798 174.749C139.795 174.768 139.786 174.786 139.773 174.8C139.76 174.814 139.743 174.825 139.724 174.829C139.371 174.918 139.008 174.968 138.644 174.976ZM138.03 174.121C137.986 174.119 137.942 174.127 137.902 174.145C137.882 174.156 137.866 174.173 137.855 174.193C137.844 174.214 137.839 174.237 137.84 174.26C137.831 174.325 137.839 174.392 137.862 174.454C137.885 174.516 137.924 174.572 137.973 174.615C138.436 174.826 138.961 174.853 139.442 174.689C139.011 174.41 138.529 174.216 138.025 174.121H138.03Z" fill="#407BFF"/>
<path d="M139.698 174.831C139.681 174.831 139.665 174.827 139.651 174.819C139.223 174.587 138.396 173.68 138.483 173.218C138.497 173.146 138.536 173.081 138.593 173.034C138.649 172.987 138.721 172.961 138.794 172.961C138.869 172.952 138.944 172.958 139.016 172.98C139.088 173.002 139.154 173.038 139.211 173.087C139.692 173.48 139.791 174.673 139.794 174.723C139.795 174.741 139.792 174.758 139.784 174.774C139.776 174.79 139.765 174.803 139.75 174.813C139.735 174.824 139.717 174.83 139.698 174.831ZM138.863 173.155H138.818C138.691 173.171 138.68 173.229 138.675 173.255C138.623 173.527 139.15 174.212 139.576 174.535C139.548 174.062 139.377 173.609 139.087 173.234C139.024 173.182 138.945 173.154 138.863 173.155Z" fill="#407BFF"/>
<path d="M121.395 174.199L121.379 174.206C120.731 174.413 119.572 174.706 119.077 174.36C119.004 174.309 118.944 174.242 118.903 174.163C118.862 174.084 118.84 173.996 118.841 173.908C118.837 173.854 118.847 173.8 118.87 173.752C118.893 173.703 118.928 173.661 118.972 173.63C119.437 173.303 121.186 173.947 121.384 174.022C121.401 174.029 121.415 174.041 121.426 174.056C121.437 174.071 121.443 174.089 121.444 174.107C121.445 174.126 121.441 174.144 121.432 174.16C121.424 174.177 121.411 174.19 121.395 174.2V174.199ZM119.11 173.774L119.087 173.788C119.069 173.8 119.055 173.817 119.046 173.837C119.037 173.856 119.034 173.878 119.037 173.9C119.036 173.958 119.049 174.016 119.075 174.069C119.102 174.121 119.141 174.166 119.189 174.2C119.798 174.39 120.454 174.354 121.039 174.1C120.433 173.831 119.769 173.719 119.109 173.774H119.11Z" fill="#407BFF"/>
<path d="M121.395 174.199C121.371 174.211 121.344 174.213 121.319 174.205C120.799 174.039 119.718 173.261 119.738 172.789C119.743 172.678 119.806 172.532 120.07 172.475C120.165 172.454 120.264 172.453 120.36 172.471C120.456 172.489 120.547 172.527 120.628 172.581C121.053 172.987 121.338 173.516 121.445 174.093C121.448 174.109 121.447 174.127 121.442 174.143C121.437 174.159 121.428 174.174 121.415 174.186C121.409 174.191 121.402 174.195 121.395 174.199ZM120.003 172.708C119.936 172.744 119.934 172.786 119.933 172.802C119.919 173.086 120.665 173.708 121.207 173.955C121.107 173.493 120.868 173.074 120.521 172.754C120.462 172.713 120.395 172.685 120.324 172.671C120.254 172.657 120.181 172.659 120.111 172.675C120.074 172.68 120.037 172.692 120.003 172.708Z" fill="#407BFF"/>
<path d="M147.002 50.5181C146.897 52.1334 146.707 53.6377 146.509 55.1909C146.312 56.7442 146.047 58.2664 145.756 59.8027C145.18 62.9404 144.329 66.0215 143.213 69.0102L142.721 70.1681L142.597 70.4574L142.566 70.5294L142.515 70.6395L142.371 70.9247C142.18 71.2713 141.952 71.5956 141.689 71.8915C141.258 72.3771 140.754 72.7924 140.194 73.1225C139.741 73.3922 139.266 73.6228 138.774 73.8121C137.135 74.4034 135.421 74.7612 133.682 74.875C130.525 75.1108 127.351 74.9923 124.22 74.5217L124.333 71.4192L126.521 71.1719C127.255 71.0849 127.984 70.9718 128.71 70.8717C130.158 70.6585 131.591 70.4203 132.957 70.1031C134.221 69.8458 135.449 69.4386 136.616 68.8901C136.931 68.7578 137.207 68.5474 137.417 68.2786C137.43 68.2075 137.272 68.5188 137.458 68.0214L137.785 67.0646C138.587 64.3217 139.2 61.5273 139.621 58.7008C139.856 57.2616 140.057 55.8094 140.251 54.3533C140.445 52.8971 140.606 51.4109 140.759 50.0147L147.002 50.5181Z" fill="#FFC3BD"/>
<path d="M147.362 47.5197C149.387 50.9155 147.662 61.5881 147.662 61.5881L137.054 59.6275C137.054 59.6275 136.479 53.5226 138.499 48.8247C140.692 43.7116 144.909 43.4053 147.362 47.5197Z" fill="#407BFF"/>
<path d="M121.363 81.0179L115.733 54.8326C115.463 53.7144 114.837 52.7144 113.948 51.9833C113.06 51.2522 111.958 50.8296 110.809 50.7793H89.2387C90.3881 50.8294 91.4901 51.2519 92.3785 51.983C93.2669 52.7141 93.8934 53.7143 94.1637 54.8326L99.7933 81.0179C100.063 82.1361 100.69 83.1362 101.578 83.8673C102.466 84.5984 103.568 85.021 104.717 85.0712H126.287C125.138 85.021 124.036 84.5984 123.148 83.8673C122.259 83.1362 121.633 82.1361 121.363 81.0179Z" fill="#263238"/>
<path opacity="0.7" d="M121.363 81.0179L115.733 54.8326C115.463 53.7144 114.837 52.7144 113.948 51.9833C113.06 51.2522 111.958 50.8296 110.809 50.7793H89.2387C90.3881 50.8294 91.4901 51.2519 92.3785 51.983C93.2669 52.7141 93.8934 53.7143 94.1637 54.8326L99.7933 81.0179C100.063 82.1361 100.69 83.1362 101.578 83.8673C102.466 84.5984 103.568 85.021 104.717 85.0712H126.287C125.138 85.021 124.036 84.5984 123.148 83.8673C122.259 83.1362 121.633 82.1361 121.363 81.0179Z" fill="#407BFF"/>
<path d="M89.2387 50.7793H110.808C109.704 50.8 108.645 51.2233 107.831 51.9697C107.017 52.7161 106.503 53.7342 106.387 54.8326L100.791 115.682C100.674 116.78 100.161 117.798 99.3467 118.545C98.5325 119.291 97.4738 119.715 96.3695 119.735H82.9065C82.3879 119.745 81.8733 119.644 81.397 119.438C80.9207 119.233 80.4939 118.928 80.145 118.544C79.796 118.161 79.5332 117.707 79.3739 117.213C79.2147 116.719 79.1627 116.197 79.2215 115.682L84.8181 54.8326C84.9345 53.7344 85.4479 52.7164 86.2619 51.9701C87.0759 51.2237 88.1345 50.8002 89.2387 50.7793Z" fill="#407BFF"/>
<path d="M92.6845 115.681C92.6257 116.196 92.6776 116.718 92.8369 117.212C92.9962 117.706 93.259 118.16 93.6079 118.543C93.9568 118.927 94.3837 119.232 94.86 119.437C95.3363 119.643 95.8509 119.744 96.3695 119.734H74.7999C74.2813 119.744 73.7666 119.643 73.2902 119.438C72.8139 119.232 72.3869 118.928 72.038 118.544C71.6891 118.16 71.4262 117.706 71.267 117.212C71.1078 116.719 71.0559 116.197 71.1149 115.681H92.6845Z" fill="#263238"/>
<path opacity="0.7" d="M92.6845 115.681C92.6257 116.196 92.6776 116.718 92.8369 117.212C92.9962 117.706 93.259 118.16 93.6079 118.543C93.9568 118.927 94.3837 119.232 94.86 119.437C95.3363 119.643 95.8509 119.744 96.3695 119.734H74.7999C74.2813 119.744 73.7666 119.643 73.2902 119.438C72.8139 119.232 72.3869 118.928 72.038 118.544C71.6891 118.16 71.4262 117.706 71.267 117.212C71.1078 116.719 71.0559 116.197 71.1149 115.681H92.6845Z" fill="#407BFF"/>
<g opacity="0.5">
<path opacity="0.5" d="M102.648 57.5969H88.0526C87.9399 57.5984 87.8282 57.576 87.7248 57.531C87.6214 57.4861 87.5288 57.4196 87.4531 57.3362C87.3774 57.2527 87.3203 57.154 87.2856 57.0468C87.2509 56.9395 87.2395 56.8262 87.252 56.7141C87.2779 56.4752 87.3899 56.2539 87.5671 56.0914C87.7442 55.929 87.9744 55.8366 88.2147 55.8314H102.809C102.921 55.8299 103.033 55.8523 103.136 55.8973C103.24 55.9422 103.332 56.0086 103.408 56.0921C103.484 56.1756 103.541 56.2742 103.576 56.3815C103.61 56.4887 103.622 56.6021 103.609 56.7141C103.583 56.9528 103.472 57.1738 103.295 57.3362C103.118 57.4986 102.888 57.5912 102.648 57.5969Z" fill="white"/>
<path opacity="0.5" d="M102.214 62.3717H87.6184C87.5057 62.3733 87.394 62.3508 87.2906 62.3059C87.1873 62.2609 87.0946 62.1945 87.0189 62.111C86.9432 62.0276 86.8861 61.9289 86.8514 61.8217C86.8167 61.7144 86.8053 61.601 86.8178 61.489C86.8437 61.2501 86.9557 61.0287 87.1329 60.8663C87.3101 60.7039 87.5403 60.6115 87.7806 60.6063H102.376C102.489 60.6048 102.601 60.6272 102.704 60.6721C102.808 60.7171 102.9 60.7835 102.976 60.867C103.052 60.9505 103.109 61.0491 103.143 61.1564C103.178 61.2636 103.19 61.377 103.177 61.489C103.151 61.728 103.039 61.9495 102.862 62.112C102.685 62.2745 102.455 62.3668 102.214 62.3717Z" fill="white"/>
<path opacity="0.5" d="M98.202 67.1466H87.184C87.0713 67.1482 86.9596 67.1257 86.8562 67.0808C86.7528 67.0358 86.6602 66.9694 86.5845 66.8859C86.5088 66.8024 86.4517 66.7038 86.417 66.5965C86.3823 66.4893 86.3708 66.3759 86.3833 66.2639C86.4093 66.0249 86.5213 65.8036 86.6985 65.6412C86.8756 65.4787 87.1058 65.3863 87.3461 65.3812H98.3641C98.4768 65.3796 98.5885 65.4021 98.6919 65.447C98.7953 65.492 98.8879 65.5584 98.9636 65.6419C99.0393 65.7254 99.0964 65.824 99.1311 65.9313C99.1658 66.0385 99.1772 66.1519 99.1647 66.2639C99.1388 66.5028 99.0268 66.7242 98.8496 66.8866C98.6725 67.049 98.4423 67.1415 98.202 67.1466Z" fill="white"/>
<path opacity="0.5" d="M90.4866 71.9205H86.7505C86.6378 71.9221 86.5261 71.8996 86.4227 71.8547C86.3194 71.8097 86.2268 71.7433 86.151 71.6598C86.0753 71.5763 86.0182 71.4777 85.9835 71.3705C85.9488 71.2632 85.9374 71.1498 85.9499 71.0378C85.9756 70.799 86.0874 70.5776 86.2644 70.4152C86.4414 70.2527 86.6715 70.1603 86.9117 70.1551H90.6487C90.7614 70.1535 90.8731 70.176 90.9765 70.2209C91.0799 70.2659 91.1725 70.3323 91.2482 70.4158C91.3239 70.4993 91.381 70.5979 91.4157 70.7052C91.4504 70.8124 91.4619 70.9258 91.4493 71.0378C91.4234 71.2768 91.3114 71.4981 91.1342 71.6605C90.9571 71.823 90.7269 71.9154 90.4866 71.9205Z" fill="white"/>
<path opacity="0.5" d="M100.911 76.6954H86.3112C86.1985 76.697 86.0868 76.6745 85.9834 76.6296C85.88 76.5846 85.7874 76.5182 85.7117 76.4347C85.636 76.3512 85.5789 76.2526 85.5442 76.1453C85.5095 76.0381 85.498 75.9247 85.5106 75.8127C85.5365 75.5737 85.6485 75.3524 85.8257 75.19C86.0028 75.0275 86.233 74.9351 86.4733 74.93H101.069C101.182 74.9284 101.294 74.9509 101.397 74.9958C101.5 75.0408 101.593 75.1072 101.669 75.1907C101.744 75.2742 101.802 75.3728 101.836 75.48C101.871 75.5873 101.882 75.7007 101.87 75.8127C101.844 76.051 101.733 76.2718 101.556 76.4341C101.38 76.5965 101.151 76.6893 100.911 76.6954Z" fill="white"/>
<path opacity="0.5" d="M94.7291 81.4703H85.8819C85.7692 81.4718 85.6575 81.4494 85.5541 81.4045C85.4507 81.3595 85.3581 81.2931 85.2824 81.2096C85.2067 81.1261 85.1496 81.0275 85.1149 80.9202C85.0802 80.813 85.0687 80.6996 85.0812 80.5876C85.107 80.3487 85.2188 80.1274 85.3958 79.9649C85.5728 79.8025 85.8028 79.71 86.043 79.7049H94.8902C95.0029 79.7033 95.1147 79.7258 95.218 79.7707C95.3214 79.8157 95.414 79.8821 95.4897 79.9656C95.5655 80.0491 95.6225 80.1477 95.6572 80.2549C95.6919 80.3622 95.7034 80.4756 95.6909 80.5876C95.665 80.8264 95.5531 81.0476 95.3761 81.21C95.1992 81.3724 94.9692 81.4649 94.7291 81.4703Z" fill="white"/>
<path opacity="0.5" d="M100.043 86.2442H85.4475C85.3348 86.2457 85.223 86.2233 85.1197 86.1784C85.0163 86.1334 84.9237 86.067 84.848 85.9835C84.7722 85.9 84.7151 85.8014 84.6805 85.6941C84.6458 85.5869 84.6343 85.4735 84.6468 85.3615C84.6728 85.1225 84.7848 84.9012 84.9619 84.7388C85.1391 84.5763 85.3693 84.4839 85.6096 84.4788H100.206C100.319 84.4772 100.431 84.4997 100.534 84.5446C100.638 84.5896 100.73 84.656 100.806 84.7395C100.882 84.8229 100.939 84.9216 100.973 85.0288C101.008 85.1361 101.02 85.2495 101.007 85.3615C100.981 85.6006 100.869 85.8221 100.692 85.9845C100.514 86.147 100.284 86.2393 100.043 86.2442Z" fill="white"/>
<path opacity="0.5" d="M96.0312 91.0191H85.0133C84.9006 91.0206 84.7888 90.9982 84.6855 90.9532C84.5821 90.9083 84.4895 90.8419 84.4138 90.7584C84.3381 90.6749 84.2809 90.5763 84.2463 90.469C84.2116 90.3618 84.2001 90.2484 84.2126 90.1364C84.2386 89.8974 84.3506 89.6761 84.5277 89.5137C84.7049 89.3512 84.9351 89.2588 85.1754 89.2536H96.1934C96.3061 89.2521 96.4178 89.2745 96.5212 89.3195C96.6245 89.3644 96.7172 89.4309 96.7929 89.5144C96.8686 89.5978 96.9257 89.6965 96.9604 89.8037C96.9951 89.911 97.0065 90.0244 96.994 90.1364C96.9681 90.3753 96.8561 90.5967 96.6789 90.7591C96.5018 90.9215 96.2715 91.0139 96.0312 91.0191Z" fill="white"/>
<path opacity="0.5" d="M88.3159 95.7929H84.5769C84.4642 95.7945 84.3524 95.772 84.2491 95.7271C84.1457 95.6821 84.0531 95.6157 83.9774 95.5322C83.9017 95.4487 83.8446 95.3501 83.8099 95.2429C83.7752 95.1356 83.7637 95.0222 83.7762 94.9102C83.8022 94.6713 83.9142 94.4499 84.0913 94.2875C84.2685 94.1251 84.4987 94.0326 84.739 94.0275H88.4801C88.5928 94.0259 88.7045 94.0484 88.8079 94.0933C88.9112 94.1383 89.0038 94.2047 89.0796 94.2882C89.1553 94.3717 89.2124 94.4703 89.2471 94.5776C89.2817 94.6848 89.2932 94.7982 89.2807 94.9102C89.2547 95.1495 89.1424 95.3711 88.9649 95.5336C88.7873 95.696 88.5566 95.7882 88.3159 95.7929Z" fill="white"/>
<path opacity="0.5" d="M98.7403 100.569H84.1444C84.0317 100.57 83.92 100.548 83.8166 100.503C83.7132 100.458 83.6206 100.392 83.5449 100.308C83.4692 100.225 83.4121 100.126 83.3774 100.019C83.3427 99.9115 83.3312 99.7982 83.3437 99.6861C83.3697 99.4472 83.4817 99.2259 83.6589 99.0634C83.836 98.901 84.0662 98.8086 84.3065 98.8034H98.9024C99.0151 98.8019 99.1269 98.8243 99.2302 98.8693C99.3336 98.9142 99.4262 98.9806 99.5019 99.0641C99.5776 99.1476 99.6348 99.2462 99.6694 99.3535C99.7041 99.4607 99.7156 99.5741 99.7031 99.6861C99.6771 99.9251 99.5651 100.146 99.388 100.309C99.2108 100.471 98.9806 100.564 98.7403 100.569Z" fill="white"/>
<path opacity="0.5" d="M92.5584 105.343H83.7112C83.5985 105.344 83.4868 105.322 83.3834 105.277C83.28 105.232 83.1874 105.166 83.1117 105.082C83.036 104.999 82.9789 104.9 82.9442 104.793C82.9095 104.685 82.898 104.572 82.9105 104.46C82.9363 104.221 83.0482 104 83.2254 103.837C83.4026 103.675 83.633 103.582 83.8733 103.577H92.7195C92.8322 103.576 92.944 103.598 93.0473 103.643C93.1507 103.688 93.2433 103.755 93.319 103.838C93.3948 103.922 93.4518 104.02 93.4865 104.127C93.5212 104.235 93.5327 104.348 93.5202 104.46C93.4943 104.699 93.3824 104.92 93.2054 105.082C93.0285 105.245 92.7985 105.337 92.5584 105.343Z" fill="white"/>
<path opacity="0.5" d="M97.8717 110.118H83.2758C83.1631 110.119 83.0513 110.097 82.948 110.052C82.8446 110.007 82.752 109.94 82.6763 109.857C82.6006 109.773 82.5434 109.675 82.5088 109.568C82.4741 109.46 82.4626 109.347 82.4751 109.235C82.5011 108.996 82.6131 108.775 82.7902 108.612C82.9674 108.45 83.1976 108.357 83.4379 108.352H98.0318C98.1445 108.351 98.2562 108.373 98.3596 108.418C98.463 108.463 98.5556 108.529 98.6313 108.613C98.707 108.696 98.7641 108.795 98.7988 108.902C98.8335 109.01 98.8449 109.123 98.8324 109.235C98.8065 109.474 98.6948 109.695 98.5181 109.857C98.3413 110.019 98.1116 110.112 97.8717 110.118Z" fill="white"/>
</g>
<path d="M125.605 71.7574L122.437 69.0042L120.951 74.0723C120.951 74.0723 124.17 75.8177 125.285 74.2154L125.605 71.7574Z" fill="#FFC3BD"/>
<path d="M118.985 68.806L117.954 73.0535L120.949 74.0743L122.434 69.0052L118.985 68.806Z" fill="#FFC3BD"/>
</svg>
