<svg width="51" height="18" viewBox="0 0 51 18" fill="none" xmlns="http://www.w3.org/2000/svg">
<path d="M0 8.66211C0 9.00391 0.126953 9.29688 0.400391 9.55078L7.99805 16.9922C8.21289 17.207 8.48633 17.3242 8.80859 17.3242C9.45312 17.3242 9.9707 16.8164 9.9707 16.1621C9.9707 15.8398 9.83398 15.5566 9.61914 15.332L2.77344 8.66211L9.61914 1.99219C9.83398 1.76758 9.9707 1.47461 9.9707 1.16211C9.9707 0.507812 9.45312 0 8.80859 0C8.48633 0 8.21289 0.117188 7.99805 0.332031L0.400391 7.76367C0.126953 8.02734 0 8.32031 0 8.66211Z" fill="#0071D8"/>
<path d="M51 8.66211C50.9902 8.32031 50.8633 8.02734 50.5996 7.76367L43.002 0.332031C42.7773 0.117188 42.5137 0 42.1914 0C41.5371 0 41.0293 0.507812 41.0293 1.16211C41.0293 1.47461 41.1562 1.76758 41.3809 1.99219L48.2168 8.66211L41.3809 15.332C41.1562 15.5566 41.0293 15.8398 41.0293 16.1621C41.0293 16.8164 41.5371 17.3242 42.1914 17.3242C42.5039 17.3242 42.7773 17.207 43.002 16.9922L50.5996 9.55078C50.873 9.29688 51 9.00391 51 8.66211Z" fill="#0071D8"/>
</svg>
