<svg width="30" height="30" viewBox="0 0 30 30" fill="none" xmlns="http://www.w3.org/2000/svg">
<g filter="url(#filter0_b_15_12564)">
<rect width="30" height="30" rx="15" fill="#F1F1F1" fill-opacity="0.8"/>
</g>
<path d="M9.96026 18.8568H20.0398C20.3408 18.8568 20.5761 18.7868 20.7456 18.6466C20.9152 18.5064 21 18.3195 21 18.0859C21 17.8735 20.9385 17.6675 20.8156 17.4679C20.6926 17.2682 20.539 17.0729 20.3545 16.8817C20.1701 16.6906 19.9868 16.4994 19.8045 16.3083C19.6646 16.1639 19.5554 15.9748 19.477 15.7412C19.3985 15.5076 19.3402 15.2591 19.3021 14.9958C19.2639 14.7325 19.2364 14.4776 19.2194 14.2312C19.2067 13.4157 19.1187 12.6893 18.9555 12.0522C18.7923 11.4151 18.539 10.8799 18.1956 10.4466C17.8522 10.0134 17.3985 9.69479 16.8346 9.49091C16.7159 9.07464 16.4976 8.72209 16.1797 8.43325C15.8617 8.14442 15.4674 8 14.9968 8C14.5305 8 14.1383 8.14442 13.8204 8.43325C13.5024 8.72209 13.2841 9.07464 13.1653 9.49091C12.6015 9.69479 12.1468 10.0134 11.8013 10.4466C11.4558 10.8799 11.2024 11.4151 11.0413 12.0522C10.8802 12.6893 10.7933 13.4157 10.7806 14.2312C10.7636 14.4776 10.7361 14.7325 10.6979 14.9958C10.6598 15.2591 10.6015 15.5076 10.5231 15.7412C10.4446 15.9748 10.3355 16.1639 10.1956 16.3083C10.0133 16.4994 9.82989 16.6906 9.64547 16.8817C9.46105 17.0729 9.30737 17.2682 9.18442 17.4679C9.06147 17.6675 9 17.8735 9 18.0859C9 18.3195 9.08479 18.5064 9.25437 18.6466C9.42395 18.7868 9.65925 18.8568 9.96026 18.8568ZM14.9968 21.4118C15.3572 21.4118 15.6794 21.3332 15.9635 21.176C16.2475 21.0189 16.4754 20.8129 16.6471 20.558C16.8188 20.3032 16.9195 20.0271 16.9491 19.7297H13.0509C13.0763 20.0271 13.176 20.3032 13.3498 20.558C13.5236 20.8129 13.7525 21.0189 14.0366 21.176C14.3206 21.3332 14.6407 21.4118 14.9968 21.4118Z" fill="#FF3B30"/>
<defs>
<filter id="filter0_b_15_12564" x="-4" y="-4" width="38" height="38" filterUnits="userSpaceOnUse" color-interpolation-filters="sRGB">
<feFlood flood-opacity="0" result="BackgroundImageFix"/>
<feGaussianBlur in="BackgroundImageFix" stdDeviation="2"/>
<feComposite in2="SourceAlpha" operator="in" result="effect1_backgroundBlur_15_12564"/>
<feBlend mode="normal" in="SourceGraphic" in2="effect1_backgroundBlur_15_12564" result="shape"/>
</filter>
</defs>
</svg>
