<svg width="31" height="31" viewBox="0 0 31 31" fill="none" xmlns="http://www.w3.org/2000/svg">
<path d="M8.79565 25.2253H22.1949C24.3065 25.2253 25.406 24.1355 25.406 22.0531V10.2108C25.406 8.12842 24.3065 7.03857 22.1949 7.03857H8.79565C6.69381 7.03857 5.59424 8.11869 5.59424 10.2108V22.0531C5.59424 24.1355 6.69381 25.2253 8.79565 25.2253ZM8.78592 23.2889C7.97827 23.2889 7.53066 22.8705 7.53066 22.0142V13.0619C7.53066 12.2056 7.97827 11.7872 8.78592 11.7872H22.2046C23.0123 11.7872 23.4599 12.2056 23.4599 13.0619V22.0142C23.4599 22.8705 23.0123 23.2889 22.2046 23.2889H8.78592ZM13.6221 15.1443H14.1962C14.5465 15.1443 14.6633 15.0372 14.6633 14.6967V14.1226C14.6633 13.7723 14.5465 13.6652 14.1962 13.6652H13.6221C13.2718 13.6652 13.155 13.7723 13.155 14.1226V14.6967C13.155 15.0372 13.2718 15.1443 13.6221 15.1443ZM16.8041 15.1443H17.3782C17.7187 15.1443 17.8355 15.0372 17.8355 14.6967V14.1226C17.8355 13.7723 17.7187 13.6652 17.3782 13.6652H16.8041C16.4538 13.6652 16.337 13.7723 16.337 14.1226V14.6967C16.337 15.0372 16.4538 15.1443 16.8041 15.1443ZM19.9763 15.1443H20.5504C20.9007 15.1443 21.0175 15.0372 21.0175 14.6967V14.1226C21.0175 13.7723 20.9007 13.6652 20.5504 13.6652H19.9763C19.6357 13.6652 19.5189 13.7723 19.5189 14.1226V14.6967C19.5189 15.0372 19.6357 15.1443 19.9763 15.1443ZM10.4499 18.2776H11.0143C11.3646 18.2776 11.4813 18.1705 11.4813 17.8202V17.2461C11.4813 16.9056 11.3646 16.7985 11.0143 16.7985H10.4499C10.0996 16.7985 9.98281 16.9056 9.98281 17.2461V17.8202C9.98281 18.1705 10.0996 18.2776 10.4499 18.2776ZM13.6221 18.2776H14.1962C14.5465 18.2776 14.6633 18.1705 14.6633 17.8202V17.2461C14.6633 16.9056 14.5465 16.7985 14.1962 16.7985H13.6221C13.2718 16.7985 13.155 16.9056 13.155 17.2461V17.8202C13.155 18.1705 13.2718 18.2776 13.6221 18.2776ZM16.8041 18.2776H17.3782C17.7187 18.2776 17.8355 18.1705 17.8355 17.8202V17.2461C17.8355 16.9056 17.7187 16.7985 17.3782 16.7985H16.8041C16.4538 16.7985 16.337 16.9056 16.337 17.2461V17.8202C16.337 18.1705 16.4538 18.2776 16.8041 18.2776ZM19.9763 18.2776H20.5504C20.9007 18.2776 21.0175 18.1705 21.0175 17.8202V17.2461C21.0175 16.9056 20.9007 16.7985 20.5504 16.7985H19.9763C19.6357 16.7985 19.5189 16.9056 19.5189 17.2461V17.8202C19.5189 18.1705 19.6357 18.2776 19.9763 18.2776ZM10.4499 21.4012H11.0143C11.3646 21.4012 11.4813 21.2941 11.4813 20.9535V20.3794C11.4813 20.0291 11.3646 19.9221 11.0143 19.9221H10.4499C10.0996 19.9221 9.98281 20.0291 9.98281 20.3794V20.9535C9.98281 21.2941 10.0996 21.4012 10.4499 21.4012ZM13.6221 21.4012H14.1962C14.5465 21.4012 14.6633 21.2941 14.6633 20.9535V20.3794C14.6633 20.0291 14.5465 19.9221 14.1962 19.9221H13.6221C13.2718 19.9221 13.155 20.0291 13.155 20.3794V20.9535C13.155 21.2941 13.2718 21.4012 13.6221 21.4012ZM16.8041 21.4012H17.3782C17.7187 21.4012 17.8355 21.2941 17.8355 20.9535V20.3794C17.8355 20.0291 17.7187 19.9221 17.3782 19.9221H16.8041C16.4538 19.9221 16.337 20.0291 16.337 20.3794V20.9535C16.337 21.2941 16.4538 21.4012 16.8041 21.4012Z" fill="#8E8E93"/>
</svg>
