<svg width="7" height="12" viewBox="0 0 7 12" fill="none" xmlns="http://www.w3.org/2000/svg">
<path d="M7 5.98387C7 5.69829 6.90038 5.46584 6.66793 5.24668L1.574 0.265655C1.40133 0.0863378 1.1888 0 0.929791 0C0.418406 0 0 0.411765 0 0.92315C0 1.17552 0.106262 1.40797 0.29222 1.59393L4.80835 5.97723L0.29222 10.3738C0.106262 10.5531 0 10.7856 0 11.0446C0 11.556 0.418406 11.9677 0.929791 11.9677C1.18216 11.9677 1.40133 11.8814 1.574 11.7021L6.66793 6.72106C6.90038 6.5019 7 6.26281 7 5.98387Z" fill="#0071D8"/>
</svg>
