<svg width="27" height="27" viewBox="0 0 27 27" fill="none" xmlns="http://www.w3.org/2000/svg">
<path d="M9.88951 17.0568C12.3897 19.5654 15.4323 21.4978 17.9155 21.4978C19.0257 21.4978 20.0004 21.1079 20.7801 20.2434C21.2378 19.7349 21.5174 19.1501 21.5174 18.5654C21.5174 18.1162 21.3395 17.6755 20.9072 17.3704L18.3054 15.5228C17.8901 15.2346 17.5511 15.099 17.246 15.099C16.8476 15.099 16.4917 15.3194 16.1018 15.7092L15.4916 16.3194C15.3899 16.4127 15.2712 16.455 15.1611 16.455C15.0255 16.455 14.8983 16.4042 14.8136 16.3533C14.2796 16.0652 13.3643 15.2855 12.5168 14.438C11.6693 13.5904 10.8811 12.6836 10.6014 12.1412C10.5506 12.048 10.5082 11.9293 10.5082 11.7937C10.5082 11.692 10.5421 11.5733 10.6353 11.4716L11.2455 10.853C11.6269 10.4546 11.8557 10.1071 11.8557 9.70881C11.8557 9.39523 11.7201 9.05622 11.432 8.64941L9.59288 6.07296C9.2793 5.63225 8.83859 5.4458 8.3555 5.4458C7.77919 5.4458 7.20288 5.70006 6.70285 6.18314C5.85533 6.97981 5.48242 7.9714 5.48242 9.0647C5.48242 11.5479 7.38933 14.5566 9.88951 17.0568Z" fill="#002241"/>
</svg>
