<svg width="375" height="66" viewBox="0 0 375 66" fill="none" xmlns="http://www.w3.org/2000/svg">
<path d="M16 52C16 46.4772 20.4772 42 26 42H349C354.523 42 359 46.4772 359 52H16Z" fill="white"/>
<path d="M16 52C16 46.4772 20.4772 42 26 42H349C354.523 42 359 46.4772 359 52H16Z" fill="black" fill-opacity="0.35"/>
<path fill-rule="evenodd" clip-rule="evenodd" d="M375 0H0V66C0 62.2774 0 60.4162 0.489435 58.9098C1.47861 55.8655 3.86545 53.4786 6.90983 52.4894C8.41616 52 10.2774 52 14 52H16C16 46.4772 20.4772 42 26 42H349C354.523 42 359 46.4772 359 52H361C364.723 52 366.584 52 368.09 52.4894C371.135 53.4786 373.521 55.8655 374.511 58.9098C375 60.4162 375 62.2774 375 66V0Z" fill="black"/>
<g clip-path="url(#clip0_15_9186)">
<path d="M110.768 -2H265.184V13C265.184 22.3888 257.572 30 248.184 30H127.768C118.379 30 110.768 22.3888 110.768 13V-2Z" fill="black"/>
<path d="M111 -2H106C106 -2 106 -2 106 -2C108.651 -2 110.799 0.148747 110.799 2.79934C110.799 2.86656 110.798 2.93345 110.795 3H111V-2Z" fill="black"/>
<path d="M265 -2H270C270 -2 270 -2 270 -2C267.349 -2 265.201 0.148747 265.201 2.79934C265.201 2.86656 265.202 2.93345 265.205 3H265V-2Z" fill="black"/>
<path d="M39.7873 32.2905C38.6916 32.2905 37.7591 31.9945 36.9899 31.4023C36.2207 30.8047 35.7476 30.0133 35.5705 29.0283H37.7038C37.8421 29.4821 38.0967 29.8418 38.4675 30.1074C38.8438 30.3675 39.2892 30.4976 39.8039 30.4976C40.6782 30.4976 41.3617 30.113 41.8542 29.3438C42.3467 28.569 42.593 27.4954 42.593 26.123H42.5182H42.4767H42.4518C42.1696 26.693 41.7573 27.1357 41.215 27.4512C40.6727 27.7611 40.0502 27.916 39.3474 27.916C38.2074 27.916 37.2639 27.5397 36.5168 26.7871C35.7752 26.0345 35.4045 25.0827 35.4045 23.9316C35.4045 22.7031 35.8195 21.696 36.6496 20.9102C37.4852 20.1188 38.5532 19.7231 39.8537 19.7231C40.728 19.7231 41.5028 19.9251 42.1779 20.3291C42.853 20.7331 43.3926 21.3197 43.7966 22.0889C44.361 23.0905 44.6432 24.3522 44.6432 25.874C44.6432 27.8883 44.2144 29.4627 43.3566 30.5972C42.4989 31.7261 41.3091 32.2905 39.7873 32.2905ZM38.1686 25.5586C38.6113 25.9958 39.1758 26.2144 39.862 26.2144C40.5482 26.2144 41.1154 25.9958 41.5637 25.5586C42.0119 25.1214 42.236 24.568 42.236 23.8984C42.236 23.2233 42.0091 22.6561 41.5554 22.1968C41.1016 21.7375 40.5399 21.5078 39.8703 21.5078C39.2007 21.5078 38.639 21.7347 38.1852 22.1885C37.7315 22.6367 37.5046 23.1956 37.5046 23.8652C37.5046 24.5514 37.7259 25.1159 38.1686 25.5586ZM47.9955 30.73C47.6081 30.73 47.2899 30.6055 47.0409 30.3564C46.7919 30.1074 46.6674 29.7948 46.6674 29.4185C46.6674 29.0366 46.7919 28.724 47.0409 28.4805C47.2899 28.2314 47.6081 28.1069 47.9955 28.1069C48.3884 28.1069 48.7066 28.2314 48.9501 28.4805C49.1991 28.724 49.3236 29.0366 49.3236 29.4185C49.3236 29.7948 49.1991 30.1074 48.9501 30.3564C48.7066 30.6055 48.3884 30.73 47.9955 30.73ZM47.9955 24.5044C47.6081 24.5044 47.2899 24.3826 47.0409 24.1392C46.7919 23.8901 46.6674 23.5775 46.6674 23.2012C46.6674 22.8193 46.7919 22.5067 47.0409 22.2632C47.2899 22.0142 47.6081 21.8896 47.9955 21.8896C48.3884 21.8896 48.7066 22.0142 48.9501 22.2632C49.1991 22.5067 49.3236 22.8193 49.3236 23.2012C49.3236 23.5775 49.1991 23.8901 48.9501 24.1392C48.7066 24.3826 48.3884 24.5044 47.9955 24.5044ZM57.1915 32V29.7671H51.3395V27.8579C52.3134 26.0649 53.9404 23.453 56.2203 20.022H59.2418V27.9575H60.8605V29.7671H59.2418V32H57.1915ZM53.3233 27.8828V28.0073H57.2247V21.7651H57.1085C55.8136 23.6799 54.5519 25.7191 53.3233 27.8828ZM65.3582 32V22.1802H65.2171L62.2371 24.272V22.2134L65.3665 20.022H67.4998V32H65.3582Z" fill="white"/>
<path opacity="0.35" d="M324.528 23C324.528 21.0822 326.082 19.5275 328 19.5275H345C346.918 19.5275 348.472 21.0822 348.472 23V28C348.472 29.9178 346.918 31.4725 345 31.4725H328C326.082 31.4725 324.528 29.9178 324.528 28V23Z" stroke="white" stroke-width="1.05509"/>
<path opacity="0.4" d="M350 24V28.2203C350.849 27.8629 351.401 27.0314 351.401 26.1102C351.401 25.1889 350.849 24.3574 350 24Z" fill="white"/>
<path d="M326 23C326 21.8954 326.895 21 328 21H345C346.105 21 347 21.8954 347 23V28C347 29.1046 346.105 30 345 30H328C326.895 30 326 29.1046 326 28V23Z" fill="white"/>
<path fill-rule="evenodd" clip-rule="evenodd" d="M308.5 22.5875C310.967 22.5876 313.339 23.5551 315.127 25.2898C315.261 25.4237 315.477 25.4221 315.609 25.286L316.896 23.9605C316.963 23.8915 317.001 23.798 317 23.7008C316.999 23.6035 316.961 23.5105 316.893 23.4423C312.201 18.8526 304.799 18.8526 300.107 23.4423C300.039 23.5105 300.001 23.6034 300 23.7007C299.999 23.7979 300.037 23.8914 300.104 23.9605L301.391 25.286C301.523 25.4223 301.739 25.424 301.873 25.2898C303.661 23.5549 306.034 22.5875 308.5 22.5875ZM308.536 26.6724C309.891 26.6723 311.198 27.1864 312.203 28.115C312.338 28.2467 312.552 28.2439 312.685 28.1085L313.97 26.7829C314.038 26.7134 314.075 26.6191 314.074 26.5211C314.073 26.4231 314.034 26.3295 313.965 26.2614C310.906 23.3568 306.169 23.3568 303.109 26.2614C303.04 26.3295 303.001 26.4231 303 26.5212C302.999 26.6192 303.037 26.7135 303.105 26.7829L304.39 28.1085C304.522 28.2439 304.736 28.2467 304.872 28.115C305.876 27.1871 307.182 26.6729 308.536 26.6724ZM311.15 29.3427C311.152 29.441 311.114 29.5357 311.045 29.6046L308.822 31.8948C308.756 31.9621 308.668 32 308.575 32C308.482 32 308.393 31.9621 308.328 31.8948L306.105 29.6046C306.036 29.5357 305.998 29.4409 306 29.3426C306.002 29.2443 306.044 29.1512 306.115 29.0853C307.535 27.8595 309.615 27.8595 311.035 29.0853C311.106 29.1513 311.148 29.2444 311.15 29.3427Z" fill="white"/>
<path d="M284 23C284 22.4477 284.448 22 285 22H286C286.552 22 287 22.4477 287 23V31C287 31.5523 286.552 32 286 32H285C284.448 32 284 31.5523 284 31V23Z" fill="white"/>
<path d="M289 21C289 20.4477 289.448 20 290 20H291C291.552 20 292 20.4477 292 21V31C292 31.5523 291.552 32 291 32H290C289.448 32 289 31.5523 289 31V21Z" fill="white"/>
<path d="M279 26.5C279 25.9477 279.448 25.5 280 25.5H281C281.552 25.5 282 25.9477 282 26.5V31C282 31.5523 281.552 32 281 32H280C279.448 32 279 31.5523 279 31V26.5Z" fill="white"/>
<path d="M274 29C274 28.4477 274.448 28 275 28H276C276.552 28 277 28.4477 277 29V31C277 31.5523 276.552 32 276 32H275C274.448 32 274 31.5523 274 31V29Z" fill="white"/>
</g>
<defs>
<clipPath id="clip0_15_9186">
<rect width="375" height="47" fill="white"/>
</clipPath>
</defs>
</svg>
